<svg xmlns="http://www.w3.org/2000/svg" viewBox="0 0 675.94 649.92"><defs><style>.cls-1{isolation:isolate;}.cls-11,.cls-2,.cls-5{fill:#49a4a5;}.cls-2{opacity:0.15;}.cls-3{fill:#f8b298;}.cls-4{fill:#14365c;}.cls-6{fill:#3e9694;}.cls-7{fill:#f3a953;}.cls-8{fill:#f69582;}.cls-9{fill:#ae6a00;}.cls-10{fill:#c98c17;}.cls-11,.cls-12{opacity:0.22;}.cls-12,.cls-18{fill:none;stroke:#49a4a5;stroke-miterlimit:10;}.cls-13{fill:#fff;}.cls-14{fill:#367d8a;}.cls-15{fill:#051b4a;}.cls-16{fill:#1e355f;}.cls-17{fill:#1d545b;}.cls-18{opacity:0.2;}.cls-19{fill:#e07f20;}.cls-20{fill:#223987;mix-blend-mode:difference;}.cls-21{fill:#1a3d67;}.cls-22{fill:#e58d3e;}.cls-23{fill:#e37e56;}.cls-24{fill:#c45431;}.cls-25{fill:#0c224f;}</style></defs><title>자산 6</title><g class="cls-1"><g id="레이어_2" data-name="레이어 2"><g id="당신의_가능성을_믿습니다." data-name="당신의 가능성을 믿습니다."><circle class="cls-2" cx="453.66" cy="222.28" r="222.28"/><circle class="cls-2" cx="200.92" cy="369.37" r="134.46"/><polygon class="cls-3" points="481.15 583.23 488.2 589.74 494.36 583.23 488.94 574.95 484.63 573.78 481.15 583.23"/><polygon class="cls-3" points="439.75 592.67 441.15 601.4 450.38 600.87 450.06 592.04 446.98 587.09 439.75 592.67"/><path class="cls-4" d="M445.38,543.63l7.47,47.9s-11.45,2.57-16.61,0L409.88,501l10.76-.4,19.11,16.6Z"/><polyline class="cls-5" points="270.54 241.93 221.38 252.84 227.39 443.8 239.28 473.03 282.5 479.76 378.95 484.79 390.76 475.5 390.76 453.25 329.58 430.92 320.31 386.83 316.46 339.88 313.05 265.7 311.14 233.27 307.89 233.97"/><path class="cls-2" d="M40.59,607.18c-8.11.75-13.61,1.27-21,2.58C6.86,612,4.1,613.75,2.37,616.2c-2.52,3.57-3.37,9.32-.86,12.88,1.18,1.67,3.88,4,20.61,3.44,15.2-.5,15.46-2.5,24.27-1.93,10,.64,18.53,3.77,24,5.79,8.44,3.1,10,4.86,16.31,5.8,7.4,1.09,8.94-.76,16.54,0,8.26.83,10.79,3.46,18.68,5.8,2.13.63,6.84,1.89,25.12,1.93,14.58,0,27.91.06,45.52-2.58,13.44-2,16.43-3.64,29.85-6.44,33.44-7,61.38-6.56,77.72-6.22,6.43.13,19.6,1.16,45.95,3.22,22.17,1.73,33.53,2.63,47,4.29,9,1.11,15.38,2.07,32.2,4.08,13.63,1.63,20.45,2.44,23.84,2.58,8.39.33,23,.8,40.37-3.87,7-1.87,5.58-2.2,15.67-5.15,11-3.22,19.6-5.73,31.13-6.66,6.74-.54,17.88-1.43,31.14,1.72,4.79,1.14,8.36,2.45,15.89,3.65,6,1,11,1.73,17.6,1.07a47.52,47.52,0,0,0,15.89-4.29c6-2.92,10.75-5.27,12.46-10.52s-.1-11.73-4.08-14.6c-2-1.45-3.42-1.13-6.87-2.15-5.27-1.56-8.72-4.53-11.81-6.87-6.22-4.7-4.91-5.53-8-6.87-3.9-1.73-8.45-.89-17.39.86-6.62,1.29-6.8,1.93-10.52,2.14-1.24.07-4.89.21-13.1-1.71-10.19-2.39-11-4.11-16.75-4.73-4.79-.51-8.17.28-14.38,1.72-15.1,3.51-17,8.22-26.63,8.37-7.66.13-6.77-2.84-15.24-3-11.91-.23-14.38,5.63-24.91,4.94-4-.27-3.18-1.09-17-5.8-12.08-4.12-18.21-6.18-22.76-5.8-7.37.62-7.13,3.72-19.54,6.87a75.46,75.46,0,0,1-16.54,2.37c-6.82.13-11.7-.84-19.11-2.37-15.05-3.09-15.54-5.18-25.55-6.44-6.73-.84-11.64-.54-20.4,0a191.12,191.12,0,0,0-25.33,3.44c-7.92,1.58-12.62,3-17.61,4.29-9.63,2.52-28.74,7.53-50.46,7.95-11.79.22-22.3-.95-33.06-2.15-11-1.22-13.05-2-22.34-2.58a240.42,240.42,0,0,0-28.77,0c-7.26.41-6.52.67-22.33,2.15C102,606.4,93.42,607.19,86.32,607c-11.54-.37-11.19-1.79-22.11-1.72C61.94,605.26,60.56,605.33,40.59,607.18Z"/><path class="cls-6" d="M246,372.53l15.33,75.13S269.11,464,283,466.81s97.34,7.91,97.34,7.91l6.94,2.3,3.52-9.45-22.57-18.38L257,366.72Z"/><path class="cls-3" d="M430.8,369.37V374H420l-14.71-4.64L379,362.21l-12.71-3.07-1.61-1.51-5.08-4.78-.55-.53a.05.05,0,0,1,0,0l-1.15-1.08,0,0-1.59-1.49-.49-.46-.79-.74-7.26-6.83-2.37-8,7.09-8.8,7.3-5.91,4.62,4.4s-.5-5.41,2.38.42c.39.79.85,1.78,1.37,3,4.15,9.81,4.3,10.09,4.3,10.09L379,347l2.24,3.11,0,0,.21.3,5.25,1.69.57.18,6.63,2.13.29.09C423.5,356.2,430.8,369.37,430.8,369.37Z"/><path class="cls-6" d="M270.05,242h0a1.7,1.7,0,0,0-1,2.63c1.27,1.84,3.22,4.42,5,5.56a1.69,1.69,0,0,1,.74,1.48,35.68,35.68,0,0,1-.79,7.24,1.66,1.66,0,0,1-.75.94c-3.87,2.32-31.13,19.15-33,34.32,0,0-1.91,7-1.41,20.22,0,.05,0,.11,0,.16L246,372.53a1.7,1.7,0,0,0,1.69,1.49h5.9a1.7,1.7,0,0,0,1.63-1.22l28.46-96.63,6.29-25.42a1.71,1.71,0,0,0-1.06-2L271,242.1A1.74,1.74,0,0,0,270.05,242Z"/><path class="cls-7" d="M323.66,313.93l-1.25-11,6.82,59.73L330.75,374H250.41c-1.26-13.11-10.13-46.16-8.2-71.28s34.28-41.58,34.28-41.58l4.3-3.15h5.44l14.45,2.14s18.93,5.3,30.4,21.85c1.5,2.17,3,4.34,4.64,6.42l22.75,29.17v11.65c-6.13,4.17-12.12,14.51-12.12,14.51l-22.69-29.81Z"/><path class="cls-8" d="M387.24,352.26c-.25,0-.49,0-.73,0h-27.4c-1-.89-2-1.72-2.93-2.62l-.49-.46-.79-.74V333.09c.1-.57.05-1,.47-1.37s1.06-.48,1.5-.82l4.6-3.57a38.23,38.23,0,0,1,5.19-3.57c.39.79.85,1.78,1.37,3,4.15,9.81,4.3,10.09,4.3,10.09L379,347a16.14,16.14,0,0,0,2.24,3.11l0,0,.21.3,5.25,1.69Z"/><rect class="cls-9" x="94.47" y="397.21" width="7.94" height="223.75"/><rect class="cls-10" x="206.16" y="397.21" width="7.94" height="223.75"/><rect class="cls-10" x="587.28" y="397.21" width="7.94" height="223.75"/><rect class="cls-9" x="546.47" y="397.21" width="7.94" height="223.75"/><polyline class="cls-9" points="236.61 473.03 231.26 620.96 236.61 620.96 252.96 481.38"/><polyline class="cls-9" points="290.7 484.55 308.77 620.96 315.43 620.96 306.02 485.77"/><polyline class="cls-9" points="368 489.52 397.24 620.96 402.6 620.96 384.56 489.25"/><path class="cls-11" d="M20.89,536.51c-.16-3.71.08-7.54,1.7-10.88.4-.84,1-1.73,2-1.81s1.85.9,2.33,1.84A18.36,18.36,0,0,1,28.51,536l-.12,1A45,45,0,0,1,27,543.23c-.28,1-.57,2-.86,3s-.65,1.63-1,2.44-.79,1.46-1.09,2.26a10.73,10.73,0,0,0-.88-2.1,13,13,0,0,1-1-2.83q-.35-1.56-.6-3.15A55.71,55.71,0,0,1,20.89,536.51Z"/><path class="cls-11" d="M28,565.48c1-2.31,2.28-4.67,4.44-6a3.35,3.35,0,0,1,2-.57c1.49.14,2.4,1.76,2.66,3.24.73,4.22-1.7,8.37-4.68,11.44-2.79,2.86-5.91,5.55-8.85,8.24-.33-1,.3-2.83.51-3.91q.43-2.15,1-4.26A58.68,58.68,0,0,1,28,565.48Z"/><path class="cls-11" d="M13.23,570.59a11.55,11.55,0,0,0-3.52-2.54,4.48,4.48,0,0,0-4.17.25,4.3,4.3,0,0,0-1.27,5A8,8,0,0,0,8,577.18c1.61.89,3.38,1.46,5.06,2.22,3.42,1.55,6.41,4.16,10.06,5.15a12.52,12.52,0,0,1-.61-1.95,17.79,17.79,0,0,0-.71-1.75,24,24,0,0,0-2.15-3.25,54.94,54.94,0,0,0-5.31-5.9Z"/><path class="cls-11" d="M29,586.88A15.71,15.71,0,0,1,31.25,582a6.42,6.42,0,0,1,4.51-2.69,1.61,1.61,0,0,1,1,.17,1.81,1.81,0,0,1,.65,1.15,20.23,20.23,0,0,1-2.83,16.27,27.82,27.82,0,0,1-4.47,4.92A27.5,27.5,0,0,1,28,603.57c-.38.28-.76.55-1.11.85-.16.14-.91.75-.87,1a14.07,14.07,0,0,1-.23-1.94,22.26,22.26,0,0,1,.39-3.92c.17-1.44.4-2.86.67-4.28A68.67,68.67,0,0,1,29,586.88Z"/><path class="cls-11" d="M15.35,591.9a9.57,9.57,0,0,0-3.23-1.44A4.49,4.49,0,0,0,8.7,591a4.4,4.4,0,0,0-1.6,4.34,8,8,0,0,0,2.4,4.16c2.64,2.62,6.19,4,9.69,5.08,1.11.33,2.25.51,3.38.75a15,15,0,0,0,3.07.22,2.69,2.69,0,0,0-.3-1.49,32.78,32.78,0,0,0-2.45-4.56A24.37,24.37,0,0,0,15.35,591.9Z"/><path class="cls-11" d="M18.84,558.12A41.3,41.3,0,0,1,14,555a20.68,20.68,0,0,1-4.8-5.41,8.27,8.27,0,0,1-1.46-4.54,3.85,3.85,0,0,1,2.65-3.64c1.86-.45,3.65,1,4.88,2.44,2.94,3.52,4.7,7.86,6.41,12.11.58,1.46,1.62,3.22,1.77,4.75A39.84,39.84,0,0,1,18.84,558.12Z"/><path class="cls-11" d="M27.15,550.07a15.72,15.72,0,0,1,8.37-7.29c1.3-.43,2.92-.56,3.87.43a2.93,2.93,0,0,1,.39,3.06,8.74,8.74,0,0,1-1.91,2.62c-1.21,1.27-2.42,2.55-3.7,3.76a49.24,49.24,0,0,1-4.53,3.75c-1,.76-2.05,1.54-3.09,2.3-.8.6-2,2-3,2.08a10.72,10.72,0,0,1,.51-2.78c.22-.94.49-1.87.79-2.78A28.3,28.3,0,0,1,27.15,550.07Z"/><path class="cls-12" d="M24.14,550.68s-4.59,52.14,6.14,65.45"/><circle class="cls-11" cx="43.6" cy="515.64" r="1.86"/><circle class="cls-11" cx="56.94" cy="507.52" r="3.33"/><path class="cls-13" d="M533.15,225.36s2.3-14-9.59-14H413.73a3.25,3.25,0,0,1-3.25-3.26V173.94a3.25,3.25,0,0,1,3.25-3.26H536.05a3.26,3.26,0,0,1,3.26,3.26v37.39S539.74,223.07,533.15,225.36Z"/><path class="cls-13" d="M534.5,162.17s1.79-10.95-7.48-10.95h-85A3.26,3.26,0,0,1,438.8,148v-25.2a3.27,3.27,0,0,1,3.26-3.26h94a3.27,3.27,0,0,1,3.26,3.26v28.46S539.64,160.37,534.5,162.17Z"/><path class="cls-14" d="M221.38,252.84a253.92,253.92,0,0,1,3,48.82l3,72.35h-9.9l-5.56-105.42c0-10.95,9.45-15.75,9.45-15.75"/><path class="cls-14" d="M392.51,484.17c-4.08,4.94-11.09,6.22-11.09,6.22-28.92-.21-131-9.23-131-9.23C227,475.58,221,439.72,221,439.72l-2.24-42.51h9.65L230,436.07s2.15,33.93,24.48,36.5,116,7.3,116,7.3,13.52.43,16.85-6l7.84,3.65V481Z"/><path class="cls-15" d="M333.47,402.58l-.58-5.37h22.33s13.92,3.41,23.73,5.37c10.22,2,13.56,7.47,13.56,7.47l13.72,19.38L392.51,427s-3.22-4.93-7.11-10.36-10.74-6.56-10.74-6.56l-41.23-7.47"/><path class="cls-16" d="M441.15,601.4s-2.79,3.39-2.73,5.58l.14,4.7a8.87,8.87,0,0,0,.7,3.33,3.53,3.53,0,0,0,1.71,2h0a4.16,4.16,0,0,0,2,.43l31.94-.88a22.18,22.18,0,0,0,11.55-3.6h0a3.4,3.4,0,0,0,.47-5.33h0a23.64,23.64,0,0,0-15.7-6.36l-20.81-.37"/><path class="cls-16" d="M487.14,588.79h0a6.69,6.69,0,0,0,1.38,6.06l3.05,3.57a9,9,0,0,0,2.64,2.15,3.54,3.54,0,0,0,2.56.46h0a4.14,4.14,0,0,0,1.8-.9l24.32-20.72a22.28,22.28,0,0,0,6.74-10h0a3.41,3.41,0,0,0-3-4.45h0a23.61,23.61,0,0,0-16.21,4.9L494,582.58Z"/><circle class="cls-17" cx="426.99" cy="184.69" r="4.34"/><path class="cls-17" d="M436.69,200.41H417.27a9.71,9.71,0,1,1,19.42,0Z"/><circle class="cls-17" cx="454.05" cy="129.03" r="4.34"/><path class="cls-17" d="M463.76,144.75H444.34a9.71,9.71,0,1,1,19.42,0Z"/><path class="cls-3" d="M315.86,227.51c-4,8.44-8,5.76-8,5.76s0,.21,0,.31a14.68,14.68,0,0,1-.17,3.31c-1.43,8.29-4.58,11.65-9,13.75h0c0,.32-.3,8.66,2,9.5,0,0-1.58,1.57-8.6,2.29s-15.6-1.29-15.6-1.29c1.43-2,1.26-11.5,1.26-11.5-8.73-5.54-10.49-16.38-10.49-16.38l.53-.18a8,8,0,0,1-2.13.17c-2.49-.14-5.41-1.66-7-7.38a21,21,0,0,1-.49-2.1c-1.06-5.61.9-8.6,3.38-10.18a6.47,6.47,0,0,1,2.41-.94,6.74,6.74,0,0,1,7.74,5.25,3.37,3.37,0,0,1,.07.43s3.79-4.71,8.73-4.86c4.07-.11,21.27.65,27.47,5.45l1.67-.59a20.46,20.46,0,0,0-1.18,4c0,.07,0,.14,0,.21a9.76,9.76,0,0,0,4.63-1.5,11.43,11.43,0,0,0,1.47-1.05,4,4,0,0,0,.36-.32l.25-.23a1,1,0,0,0,.15-.15l.05-.05a3.45,3.45,0,0,1,.51.81C317.22,222.88,315.86,227.51,315.86,227.51Z"/><path class="cls-5" d="M447.3,350.46H361.13a5.15,5.15,0,0,1-5.15-5.15V238.72a5.15,5.15,0,0,1,5.15-5.16H535.84a5.15,5.15,0,0,1,5.15,5.16V345.31a5.15,5.15,0,0,1-5.15,5.15H475.47"/><path class="cls-13" d="M449.79,350.46H363.62a5.16,5.16,0,0,1-5.15-5.15V238.72a5.16,5.16,0,0,1,5.15-5.16H538.33a5.16,5.16,0,0,1,5.16,5.16V345.31a5.16,5.16,0,0,1-5.16,5.15H478"/><polygon class="cls-2" points="470.32 328.6 465.44 350.46 457.25 350.46 461.44 336.92 450.98 336.92 445.87 350.46 435.53 350.74 440.83 332.14 442.15 328.6 470.32 328.6"/><polygon class="cls-5" points="450.98 340.63 464.55 340.63 474.11 366.72 478.19 366.07 468.42 334.51 451.85 334.51 450.98 340.63"/><polygon class="cls-5" points="442.15 328.6 440.82 332.15 454.14 371.23 457.79 370.47 450.17 343.63 442.15 328.6"/><rect class="cls-5" x="427.94" y="369.37" width="2.86" height="4.64"/><path class="cls-13" d="M484.57,369.37l-14.25-40.78H442.15l14.24,40.78H430.8V374h85.32v-4.64Zm-32.73-32.45h14.32L476,364.56h-14.6l-8.7-25.07Z"/><path class="cls-8" d="M420.9,374H420l-14.71-4.64L379,362.21l-12.71-3.07-1.61-1.51v0c2.83,0,19.61,1.65,21.71,1.92C388.65,359.81,414.09,363.4,420.9,374Z"/><path class="cls-3" d="M283.71,374h75.84c3.65,0,18.47-4.65,18.47-4.65s5.9,4.65,9.23,4.65H420c-16.64-15.15-43.38-14.59-43.38-14.59-29.66-1.89-63,6.19-70.55,8.16a2.22,2.22,0,0,1-2.45-1C298,357.79,283,338.21,283,338.21s-12.06,9-21.68,10.69L283.71,374"/><line class="cls-18" x1="467.76" y1="127.53" x2="484.05" y2="127.53"/><line class="cls-18" x1="467.76" y1="131.62" x2="532.05" y2="131.62"/><line class="cls-18" x1="467.76" y1="135.37" x2="532.05" y2="135.37"/><line class="cls-18" x1="467.76" y1="139.12" x2="532.05" y2="139.12"/><line class="cls-18" x1="441.8" y1="180.35" x2="458.09" y2="180.35"/><line class="cls-18" x1="441.8" y1="184.43" x2="529.34" y2="184.43"/><line class="cls-18" x1="441.8" y1="188.18" x2="529.34" y2="188.18"/><line class="cls-18" x1="441.8" y1="191.93" x2="529.34" y2="191.93"/><line class="cls-18" x1="441.8" y1="195.69" x2="529.34" y2="195.69"/><line class="cls-18" x1="441.8" y1="199.44" x2="529.34" y2="199.44"/><line class="cls-18" x1="467.76" y1="142.9" x2="532.05" y2="142.9"/><g id="레이어_5" data-name="레이어 5"><path class="cls-19" d="M283,338.21s-17.17-26.76-27.6-39.06"/><path class="cls-19" d="M283.71,374c.79.76-32.09-37.75-32.09-37.75S270.35,361.21,283.71,374Z"/><path class="cls-19" d="M317.41,283.32s4.51,12.94,7.17,40"/><path class="cls-8" d="M298.73,250.64c-7.36,2.29-14.85,0-14.85,0s5.76,2.21,14.83,1.61"/><path class="cls-20" d="M258.65,225.87c-11.68-8.92-9.5-27-9.5-27a22.57,22.57,0,0,1,7.4-16C247.57,198.64,258.41,225.28,258.65,225.87Z"/><path class="cls-8" d="M265.66,233.26c-2.49-.14-5.41-1.66-7-7.38a21,21,0,0,1-.49-2.1c-1.06-5.61.9-8.6,3.38-10.18a6.47,6.47,0,0,1,2.41-.94,10.26,10.26,0,0,0-3.51,5.63,17.61,17.61,0,0,0-.18,6.94,11.32,11.32,0,0,0,1.83,5.09,11.16,11.16,0,0,0,3.12,2.68Z"/><path class="cls-4" d="M339.48,422.9l64.65,13.61s9.7,3.92,14.13,12.43,16.94,29.38,16.94,29.38l1,6.47-18-28.91-4.85-7.79s-8.49-9.25-17.61-12S339.48,422.9,339.48,422.9Z"/></g><path class="cls-21" d="M436.21,484.79,430.8,450.1c-.57-11.74-16.31-19.18-16.31-19.18l-79.63-14.31a11,11,0,0,1-1.63,2L299,418.1l-27.08-1.49-7.5,2.28-3.11,8,3.45,16.75a22.31,22.31,0,0,0,2.87,7.35c3.2,5.1,9.51,10.67,23.55,13.62,32.23,6.76,84.75,6.34,90.25,7.08,0,0,6.15-.43,18.61,16.75s80.3,96.2,80.3,96.2,3.87-7.73,11.17-11.17l-78.16-125.4a38,38,0,0,0-17.61-12c-11.16-3.44-56.25-13.17-56.25-13.17"/><path class="cls-22" d="M261.3,426.91s38.05,5.38,62-1.89c0,0,9.68-4.62,11.58-8.41l-2.47-24.84-10.62,2-31.82.36-35.79-1.29,3.67,17.21,3.47,16.86Z"/><rect class="cls-23" x="200.92" y="374.01" width="395.15" height="23.2"/><rect class="cls-24" x="93.62" y="374.01" width="121.32" height="23.2"/><path class="cls-15" d="M228.65,404.35l81,15.83s11.34,0,19.95,10.74,38.61,48.84,38.61,48.84,8,.08,10.76-.76c0,0-40.76-52.81-46.13-61s-18.68-9-18.68-9l-67-11.81H228.36Z"/><path class="cls-4" d="M339.48,422.9l64.65,13.61s9.7,3.92,14.13,12.43,16.94,29.38,16.94,29.38l1,6.47-18-28.91-4.85-7.79s-8.49-9.25-17.61-12S339.48,422.9,339.48,422.9Z"/><path class="cls-8" d="M308.51,221.16a13.11,13.11,0,0,0-5.09-3,67.57,67.57,0,0,0-8.88-2.38,47.38,47.38,0,0,0-11.83-1.51,19.08,19.08,0,0,0-7.61,1.79,21.41,21.41,0,0,1-2.64,1.49c1.31-1.34,4.35-4,8-4.1,4.07-.11,21.27.65,27.47,5.45A7.24,7.24,0,0,1,308.51,221.16Z"/><path class="cls-25" d="M316.36,218a11.13,11.13,0,0,1-7.94,4.51,1.12,1.12,0,0,0,.05-.31,3.93,3.93,0,0,0,0-1.08,7.24,7.24,0,0,0-.54-2.23c-6.2-4.8-23.4-5.56-27.47-5.45-3.69.11-6.73,2.76-8,4.1-.45.46-.69.76-.69.76a3.37,3.37,0,0,0-.07-.43,6.72,6.72,0,0,0-10.15-4.31c-2.48,1.58-4.44,4.57-3.38,10.18a21,21,0,0,0,.49,2.1h0c-11.68-8.92-9.5-27-9.5-27a22.57,22.57,0,0,1,7.4-16,0,0,0,0,0,0,0c8.75-8.06,22.08-9.2,22.08-9.2s37.36-2.3,41.23,22C319.87,195.73,322.14,210.35,316.36,218Z"/><path class="cls-8" d="M315.84,220.06a4.82,4.82,0,0,1-.66.61,11.8,11.8,0,0,1-4.85,2.25c-.4.08-1.71.5-2,0a.8.8,0,0,1,.1-.7.38.38,0,0,1,0,.1c0,.07,0,.14,0,.21a11.76,11.76,0,0,0,4.63-1.5,11.43,11.43,0,0,0,1.47-1.05l.36-.32.25-.23.15-.15.05-.05A3.45,3.45,0,0,1,315.84,220.06Z"/></g></g></g></svg>