<svg xmlns="http://www.w3.org/2000/svg" viewBox="0 0 644.55 601.46"><defs><style>.cls-1,.cls-27,.cls-5{fill:#49a4a5;}.cls-1{opacity:0.15;}.cls-2{fill:#f8b298;}.cls-3{fill:#1a3d67;}.cls-4{fill:#f69582;}.cls-6{fill:#3a2509;}.cls-7{fill:#367d8a;}.cls-8{fill:#3f9391;}.cls-9{fill:#fff;}.cls-10{fill:#e37e56;}.cls-11{fill:#f8b450;}.cls-12{fill:#f6af45;}.cls-13,.cls-17{fill:none;stroke-miterlimit:10;}.cls-13{stroke:#e59a38;stroke-linecap:round;stroke-width:0.25px;}.cls-14{fill:#e59a38;}.cls-15{fill:#281805;}.cls-16{fill:#d36e4a;}.cls-17{stroke:#f69582;}.cls-18{fill:#bfbfbf;}.cls-19{fill:#757575;}.cls-20{isolation:isolate;}.cls-21{fill:#3d3d3d;}.cls-22{fill:#535353;}.cls-23{fill:#666;}.cls-24{fill:#ae6a00;}.cls-25{fill:#c98c17;}.cls-26{fill:#c45431;}.cls-27{opacity:0.2;}.cls-28{fill:#cc9150;}.cls-29{fill:#dcaa6d;}.cls-30{fill:#f6ebd9;}.cls-31{fill:#e5d8c3;}.cls-32{fill:#eeacb8;}.cls-33{fill:#e59aaa;}</style></defs><title>자산 8</title><g id="레이어_2" data-name="레이어 2"><g id="무엇이든지_누구든지." data-name="무엇이든지, 누구든지."><path class="cls-1" d="M644.55,22.58V545.21c-3.95,2.11-7.89,4.25-11.83,6.38-12.63,6.82-25.31,13.55-38.56,19-63.46,26.22-139,21.2-198.42-13.17a341.46,341.46,0,0,1-28.78-19c-15.4-11.14-30.38-22.92-46.41-33.11-64.22-40.83-145.64-46.84-196.62-108.1A161.71,161.71,0,0,1,112.69,382c-18-27.6-27.52-60.8-23.68-93.36,1.46-12.44,4.8-24.58,8.74-36.46,4.83-14.62,10.66-29.08,19.42-41.74A124.33,124.33,0,0,1,144,182.85c12.26-9.43,26-17.2,39.91-24.06,34.86-17.2,73.43-30.68,105.28-52.67,27.9-19.26,53.95-41.27,82.51-59.53q8.19-5.25,16.71-10c67.87-38,151.36-46.92,225.74-24.22C624.32,15.43,634.4,19.13,644.55,22.58Z"/><path class="cls-1" d="M644.55,37.8V554.68c-3.95-.93-7.9-2-11.83-3.09-47.23-13.4-92.85-38.25-142-41.12C447.73,508,407.32,522.16,367,538.42c-37.25,15-74.45,31.78-113.54,38.77A237.66,237.66,0,0,1,116,560.54c-29.92-13.3-59.58-37.19-62.09-69.84-2.79-36.32,28-65,49.35-94.48q5-6.93,9.43-14.25a209.31,209.31,0,0,0,28.64-83.14c4.57-38.33-1.46-78,2.66-116a163.54,163.54,0,0,1,6.85-33.13C170.52,89.19,232.93,49.15,296.29,43c25.15-2.45,50.29-.38,75.4,3.59,68,10.71,135.8,35.32,202.89,21.75A183.82,183.82,0,0,0,644.55,37.8Z"/><polygon class="cls-2" points="363.37 464.17 374.94 570.01 384.63 570.01 387.99 460.77 363.37 464.17"/><polygon class="cls-2" points="341.85 461.34 331.94 567.18 322.25 567.18 318.89 457.94 341.85 461.34"/><path class="cls-3" d="M392.2,470.93a36.87,36.87,0,0,1-4.57,1.56,41.07,41.07,0,0,1-23.42-.62,22.71,22.71,0,0,1-2.47-.94c-7.36-46.21-10.17-53.9-10.17-53.9-4,4-8.28,52.85-8.28,52.85-.75.19-1.51.35-2.29.48-7.49,1.29-16.27.11-21.77-1-3.27-.63-5.38-1.22-5.38-1.22l.76-70.24,0-2.94v-.15l.12-11,75-2,.34,12.47,0,.46.09,3.26Z"/><path class="cls-2" d="M286.39,193.18a38,38,0,0,0-.36,4.39v.16c0,.45,0,.91,0,1.37a11.61,11.61,0,0,1-.2,2.22s0,.05,0,.08a5.28,5.28,0,0,1-.71,1.74c-1,1.6-3,2.3-4.88,2.76a3.34,3.34,0,0,1-2.49-.06,3.46,3.46,0,0,1-.8-.73c-.14-.15-.27-.31-.42-.46a2.25,2.25,0,0,0-.21-.24c-.46-.52-.94-1-1.41-1.56s-1.07-1.19-1.57-1.8a17.5,17.5,0,0,1-1.08-1.48,35.22,35.22,0,0,1-1.82-3.23,16,16,0,0,1-1.84-5.06,6.21,6.21,0,0,1,1.34-5.07c1.43-1.53,3.7-1.93,5.79-1.91a6.28,6.28,0,0,1,1.88.26,4.61,4.61,0,0,1,2.7,3.15c.5,1.77.26,3.83,1.39,5.29a.68.68,0,0,0,.58.34c.21,0,.35-.23.45-.42a4.32,4.32,0,0,0,.49-1.65,3.31,3.31,0,0,1,.37-1.75,1.48,1.48,0,0,1,1.92-.25,2.46,2.46,0,0,1,1,1.79A7.54,7.54,0,0,1,286.39,193.18Z"/><path class="cls-4" d="M286,197.73c0,.45,0,.91,0,1.37a11.61,11.61,0,0,1-.2,2.22s0,.05,0,.08a5.28,5.28,0,0,1-.71,1.74c-1,1.6-3,2.3-4.88,2.76a3.34,3.34,0,0,1-2.49-.06,3.46,3.46,0,0,1-.8-.73c-.14-.15-.27-.31-.42-.46a2.25,2.25,0,0,0-.21-.24c-.46-.52-.94-1-1.41-1.56s-1.07-1.19-1.57-1.8a17.5,17.5,0,0,1-1.08-1.48,30.33,30.33,0,0,0,9-.65C282.82,198.58,284.42,198.17,286,197.73Z"/><path class="cls-2" d="M435.25,190.66a16.1,16.1,0,0,1-1.84,5.07l-.47.91a23.11,23.11,0,0,1-2.44,3.79c-.64.79-1.33,1.56-2,2.32-2.9-2.34-7.71-3.1-10.63-3.34,0-.31,0-.62,0-.93,0-.51,0-1,0-1.52a37.83,37.83,0,0,0-.35-4.39,7.58,7.58,0,0,1-.11-2.12,2.45,2.45,0,0,1,1-1.79,1.48,1.48,0,0,1,1.92.25,3.27,3.27,0,0,1,.36,1.74,4.57,4.57,0,0,0,.5,1.66.68.68,0,0,0,.45.41c.23,0,.43-.15.58-.33,1.13-1.46.88-3.52,1.39-5.3a4.55,4.55,0,0,1,2.7-3.14,5.94,5.94,0,0,1,1.88-.26c2.09,0,4.36.38,5.78,1.91A6.18,6.18,0,0,1,435.25,190.66Z"/><polygon class="cls-5" points="367.06 283.36 336.5 283.36 340.72 282.81 361.69 282.81 362.38 282.88 367.06 283.36"/><path class="cls-2" d="M382.7,257a10.4,10.4,0,0,1-5.87,7.15c-1.91.84-5.58,1.5-7.69.29-1.78,3.79-4.49,7.38-8.59,9.24h0l0,0c0,.42,0,.83-.05,1.24-.08,2.56,0,4.89.1,6l.06.79a16.54,16.54,0,0,1-2,.72c-.34.1-.68.2-1,.28s-.65.14-1,.19a19.87,19.87,0,0,1-3.54.36h-.95a27.94,27.94,0,0,1-5-.55,25.67,25.67,0,0,1-2.92-.76l-.44-.14-.18-.06-.11,0a3.4,3.4,0,0,0,.17-.79,53.37,53.37,0,0,0-.07-7.35c-5.91-2.05-10.53-6.67-13.08-15.61a5.57,5.57,0,0,1-1.41-.12c-2.42-.54-4.18-2.68-5.16-4.95a11.32,11.32,0,0,1-.59-7.68,8.3,8.3,0,0,1,3.37-4.49l.31-.19.33.56c.12.18.23.37.35.56l0,0a21,21,0,0,0,2.65-2.33c.34-.34.7-.71,1.08-1.13s.53-.57.8-.89l.86-1c.29-.36.59-.73.9-1.13a62.74,62.74,0,0,0,4.05-5.8,19.44,19.44,0,0,0,1,5.7c.14.41.3.81.48,1.22s.38.81.6,1.2a12.32,12.32,0,0,0,.75,1.18,10.4,10.4,0,0,0,.9,1.11c.17.18.34.36.52.53a9.86,9.86,0,0,0,1.16,1,13,13,0,0,0,1.35.86,17,17,0,0,0,9.65,1.63c9.6-.76,14.08,1.28,16.16,3.33l.16.16q.17.16.3.33a1.83,1.83,0,0,1,.13.16,3.33,3.33,0,0,1,.24.32,4.25,4.25,0,0,1,.25.39,6.3,6.3,0,0,1,.49,1,.56.56,0,0,1,0,.12,1.09,1.09,0,0,1,.05.17c0,.16.08.31.1.42a1,1,0,0,1,0,.16,1.73,1.73,0,0,1,0,.22h0a8.78,8.78,0,0,1,.54-1.21,3.37,3.37,0,0,1,.17-.32l.26-.44A7.51,7.51,0,0,1,374,248c.18-.23.37-.46.57-.67l.21-.21a5.45,5.45,0,0,1,.7-.57h0a3.77,3.77,0,0,1,.79-.43l.29-.11.36-.1a4,4,0,0,1,.93-.11,4.67,4.67,0,0,1,1.46.25l.25.09a7,7,0,0,1,1.1.54,8.45,8.45,0,0,1,.88.59c.21.15.41.31.62.49,0,0,0-.08.05-.15a5.85,5.85,0,0,1,.57,1.68,15,15,0,0,1,.24,2.76A21.19,21.19,0,0,1,382.7,257Z"/><path class="cls-6" d="M343.55,241.36a13,13,0,0,0,1.35.86A10.72,10.72,0,0,1,343.55,241.36Z"/><path class="cls-6" d="M375.45,246.55a3.77,3.77,0,0,1,.79-.43A5.46,5.46,0,0,0,375.45,246.55Z"/><path class="cls-6" d="M382.13,247.76h0c-2.11-1.81-3.85-2.19-5.24-1.86C378.27,245.57,380,246,382.13,247.76Z"/><path class="cls-5" d="M361.36,283.36a22.36,22.36,0,0,1-18.75,0h18.75Z"/><path class="cls-5" d="M387.15,305.49s0,.22.07.62a0,0,0,0,0,0,0c.45,4.11,2.95,27.18,4.61,48.7,1.38,18.18,2.17,35.25.6,38.88h0c-.16.41-.37.64-.6.7-.56.14-1.13.28-1.7.4-31.28,7.27-65.27,2.08-75.47.2-1.7-.31-2.74-.53-3-.59h-.06c1-3.65,2-22.24,2.94-41.5,1-20.87,1.73-42.53,1.88-46.7,0-.47,0-.72,0-.72-7.27-6.25-13.69-16.24-19.18-27.52C282.19,247.1,274,206.57,274,206.57a8.46,8.46,0,0,1,2.3-2.15c2.85-1.89,6.86-2.73,9.53-3.09,1.18-.17,2.1-.24,2.53-.26l.28,0c5.73,42.67,31.15,75.56,31.15,75.56,7,7,16.73,6.76,16.73,6.76h6.11a22.36,22.36,0,0,0,18.75,0h5.7s9.79.25,16.74-6.76c0,0,25.42-32.89,31.15-75.56h.28c.24,0,.65,0,1.17.1s1.1.11,1.78.21a24.25,24.25,0,0,1,8.91,2.91,9.73,9.73,0,0,1,1.72,1.36,5,5,0,0,1,.53.61c.17.2.25.31.25.31s-7.35,36.34-20.93,66.41C402.68,286.27,395.47,298.33,387.15,305.49Z"/><path class="cls-7" d="M362.52,282.81l-.14.07-1,.48a22.36,22.36,0,0,1-18.75,0,11.32,11.32,0,0,1-1.05-.55A2.6,2.6,0,0,1,343.7,281l-.17.79.11,0,.18.06.44.14.27.08c.68.19,1.66.45,2.86.68a26.12,26.12,0,0,0,9.27.19l.9-.19c.37-.08.73-.17,1.09-.28s.66-.21,1-.33.66-.25,1-.39l-.06-.79A2.56,2.56,0,0,1,362.52,282.81Z"/><path class="cls-7" d="M429.91,204.28l-.11.79-.21,1.49s-.08-.11-.25-.31a5,5,0,0,0-.53-.61,9.73,9.73,0,0,0-1.72-1.36,24.25,24.25,0,0,0-8.91-2.91c-.68-.1-1.28-.17-1.78-.21s-.93-.09-1.17-.1H415l.37-1.75,1.14,0c.38,0,.85.05,1.38.1,2.92.24,7.73,1,10.63,3.34A6.74,6.74,0,0,1,429.91,204.28Z"/><path class="cls-7" d="M288.62,201l-.28,0c-.43,0-1.35.14-2.55.34a27.17,27.17,0,0,0-9.3,3.25,13.41,13.41,0,0,0-2.51,1.91l-.45-2.49a8.34,8.34,0,0,1,1.34-1.22c1.73-1.3,5.23-3.25,11.14-3.75.73-.06,1.51-.1,2.32-.11Z"/><path class="cls-7" d="M392.42,393.7v4l-2.22.36c-31.44,4.93-65.42,1.21-75.59-.12-2-.25-3-.42-3-.42V394.4h.06l3,.44c11.08,1.54,49.88,6.17,75.45-.51.79-.2,1.56-.41,2.32-.64Z"/><path class="cls-3" d="M351.11,577.74c-1.9,1.23-3.9,2.77-4.27,5a2.46,2.46,0,0,0,.21,1.65,3.3,3.3,0,0,0,1.81,1.27c5.44,2,11.46,1.51,17.23,1l12.76-1.24a13.37,13.37,0,0,0,4.53-1,9,9,0,0,0,4.5-6.46,26.71,26.71,0,0,0,0-8.13,4.21,4.21,0,0,0-1.14-2.94,4,4,0,0,0-2.27-.63C372.69,565.52,360.73,571.51,351.11,577.74Z"/><path class="cls-3" d="M298.48,576.25c-1.87,1.27-3.83,2.86-4.15,5.1a2.48,2.48,0,0,0,.26,1.65,3.3,3.3,0,0,0,1.84,1.22c5.49,1.89,11.49,1.22,17.25.52q6.36-.76,12.72-1.56a13.39,13.39,0,0,0,4.51-1.1,9,9,0,0,0,4.33-6.57,26.68,26.68,0,0,0-.24-8.12,4.19,4.19,0,0,0-1.22-2.92,3.87,3.87,0,0,0-2.28-.57C319.75,563.49,307.94,569.77,298.48,576.25Z"/><path class="cls-6" d="M383.54,239.93a36.16,36.16,0,0,1-1.49,7.67h0l-.05.15c-2.12-1.81-3.86-2.19-5.24-1.85l-.36.1-.29.11a3.77,3.77,0,0,0-.79.43h0a5.45,5.45,0,0,0-.7.57l-.21.21c-.2.21-.39.44-.57.67a7.51,7.51,0,0,0-.47.68l-.26.44a3.37,3.37,0,0,0-.17.32,8.78,8.78,0,0,0-.54,1.21.75.75,0,0,0,0-.21,1,1,0,0,0,0-.16,2.26,2.26,0,0,0-.1-.42,1.09,1.09,0,0,0-.05-.17.56.56,0,0,0,0-.12,5,5,0,0,0-.49-1,4.25,4.25,0,0,0-.25-.39,3.33,3.33,0,0,0-.24-.32,1.83,1.83,0,0,0-.13-.16q-.14-.16-.3-.33l-.16-.16c-2.08-2.05-6.56-4.09-16.16-3.33a17,17,0,0,1-9.65-1.63,13,13,0,0,1-1.35-.86,9.86,9.86,0,0,1-1.16-1c-.18-.17-.35-.35-.52-.53a10.4,10.4,0,0,1-.9-1.11,12.32,12.32,0,0,1-.75-1.18c-.22-.39-.42-.8-.6-1.2s-.34-.81-.48-1.22a19.44,19.44,0,0,1-1-5.7,62.74,62.74,0,0,1-4.05,5.8c-.31.4-.61.77-.9,1.13l-.86,1-.8.89c-.38.42-.74.79-1.08,1.13a21,21,0,0,1-2.65,2.33l0,0c-.12-.19-.23-.38-.35-.56s-.22-.37-.32-.56-.25-.44-.37-.66-.33-.63-.47-.94a19.29,19.29,0,0,1-1.46-4.17,0,0,0,0,0,0,0,15.51,15.51,0,0,1-.34-2.65c-.46-11.42,12.54-17.7,12.54-17.7,12.51-10.07,27.12-3,27.12-3C382.29,217.08,384.3,231.05,383.54,239.93Z"/><path class="cls-4" d="M382.62,249.29c-.43-.13-.86-.3-1.29-.42a7.79,7.79,0,0,0-9.17,4.67,13.56,13.56,0,0,0-2.35-4.64c-2.13-2.42-5.64-3-8.87-3.17-3.4-.13-6.8.11-10.19-.15a18.38,18.38,0,0,1-9.56-3.11c-2.74-2-4.62-5.42-4.13-8.78-2.39,3.3-5.55,7-9.12,9.1a6,6,0,0,1-.28-1.07,21,21,0,0,0,2.65-2.33c.34-.34.7-.71,1.08-1.13s.53-.57.8-.89l.86-1c.29-.36.59-.73.9-1.13a62.74,62.74,0,0,0,4.05-5.8,19.44,19.44,0,0,0,1,5.7c.14.41.3.81.48,1.22s.38.81.6,1.2a12.32,12.32,0,0,0,.75,1.18,10.4,10.4,0,0,0,.9,1.11c.17.18.34.36.52.53a9.86,9.86,0,0,0,1.16,1,13,13,0,0,0,1.35.86,17,17,0,0,0,9.65,1.63c9.6-.76,14.08,1.28,16.16,3.33l.16.16q.17.16.3.33a1.83,1.83,0,0,1,.13.16,3.33,3.33,0,0,1,.24.32,4.25,4.25,0,0,1,.25.39,5,5,0,0,1,.49,1,.56.56,0,0,1,0,.12,1.09,1.09,0,0,1,.05.17,2.26,2.26,0,0,1,.1.42,1,1,0,0,1,0,.16.75.75,0,0,1,0,.21,8.78,8.78,0,0,1,.54-1.21,3.37,3.37,0,0,1,.17-.32l.26-.44a7.51,7.51,0,0,1,.47-.68c.18-.23.37-.46.57-.67l.21-.21a5.45,5.45,0,0,1,.7-.57h0a3.77,3.77,0,0,1,.79-.43l.29-.11.36-.1c1.38-.34,3.12,0,5.24,1.85l.05-.15A5.85,5.85,0,0,1,382.62,249.29Z"/><path class="cls-4" d="M360.4,273.71l0,0c0,.42,0,.83-.05,1.24-1.88.07-4.64,0-5,0-1.15,0-2.3,0-3.45,0a11.88,11.88,0,0,1-3.42-.41c.24-.24,1.29-.11,1.65-.12l1.95,0c1.11,0,2.24.12,3.34,0A34.1,34.1,0,0,0,360.4,273.71Z"/><path class="cls-4" d="M432.81,196.64a23.11,23.11,0,0,1-2.44,3.79c-.64.79-1.33,1.56-2,2.32-2.9-2.34-7.71-3.1-10.63-3.34,0-.31,0-.62,0-.93.66.05,1.34.23,2,.28a29.1,29.1,0,0,0,9.29-.93A39.16,39.16,0,0,0,432.81,196.64Z"/><path class="cls-8" d="M387.15,305.48s0,.22.07.62c-.44-1.43-.68-3-1-4a2.16,2.16,0,0,1-.13-.83,2.19,2.19,0,0,1,.57-1c7.44-9,15.07-17.9,22-27.3C402.68,286.26,395.47,298.32,387.15,305.48Z"/><path class="cls-8" d="M317,301.7c-.17,1.5-.34,3-.63,4.5,0-.47,0-.72,0-.72-7.27-6.25-13.69-16.24-19.18-27.52l.12.12c2.36,2.3,4.55,4.77,6.75,7.24l12.06,13.56a3.74,3.74,0,0,1,.8,1.18A3.49,3.49,0,0,1,317,301.7Z"/><path class="cls-5" d="M239.37,309.72h70.28a4.21,4.21,0,0,0,4.2-4.21V218.58a4.21,4.21,0,0,0-4.2-4.21H167.16a4.21,4.21,0,0,0-4.21,4.21v86.93a4.21,4.21,0,0,0,4.21,4.21h49.23"/><path class="cls-9" d="M237.34,309.72h70.28a4.21,4.21,0,0,0,4.2-4.21V218.58a4.21,4.21,0,0,0-4.2-4.21H165.12a4.21,4.21,0,0,0-4.2,4.21v86.93a4.21,4.21,0,0,0,4.2,4.21h49.24"/><polygon class="cls-1" points="220.59 291.88 224.57 309.72 231.25 309.72 227.84 298.67 236.37 298.67 240.54 309.72 248.97 309.94 244.65 294.78 243.57 291.88 220.59 291.88"/><polygon class="cls-5" points="236.37 301.7 225.3 301.7 217.51 322.97 214.18 322.45 222.15 296.7 235.66 296.7 236.37 301.7"/><polygon class="cls-5" points="243.57 291.88 244.65 294.78 233.79 326.65 230.82 326.04 237.03 304.15 243.57 291.88"/><rect class="cls-5" x="252.82" y="325.14" width="2.33" height="3.79"/><path class="cls-9" d="M183.24,325.14v3.78h69.58v-3.78H232l11.62-33.26h-23L209,325.14Zm51.7-24.37-7.1,20.44H215.93L224,298.67h11.67Z"/><path class="cls-10" d="M469.29,575.69a11.55,11.55,0,0,0,1.56,4.84,11,11,0,0,0,2.78,2.52q10.37,7.43,21.42,13.83c2.39,1.39,5.67,2.67,7.68.77,6.09-5.76-10.36-21.67-14.31-25s-13-10.36-18.48-5.84C468,568.46,468.76,573.56,469.29,575.69Z"/><path class="cls-10" d="M511.75,573.14A11.4,11.4,0,0,0,513.3,578a11.15,11.15,0,0,0,2.78,2.52q10.36,7.43,21.42,13.83c2.4,1.39,5.67,2.67,7.68.77,6.09-5.75-10.36-21.67-14.31-25s-13-10.37-18.48-5.84C510.4,565.91,511.21,571,511.75,573.14Z"/><path class="cls-2" d="M502.16,404.91l11.57,162.28.15.07a11.11,11.11,0,0,0,9.54-.07h0l3.36-167.49Z"/><path class="cls-2" d="M492.61,407.5,481,569.78l-.14.06a12.82,12.82,0,0,1-9.55-.06h0L468,402.29Z"/><path class="cls-10" d="M554.43,402.23s-48.4,39.9-109.95,8.49c0,0,6.49-35.93,9.94-62.7,1.35-10.49,2.23-19.57,2.08-24.54l46.68.72,7.95.12s19.1-.63,22.07-.84c0,0,1.32,8,3.56,19.11.35,1.74.72,3.56,1.12,5.43C541.81,366.68,547.84,391,554.43,402.23Z"/><path class="cls-6" d="M454.33,155.55a11.39,11.39,0,0,0,1.3,1.06l.35.25a14.5,14.5,0,0,0,2.36,1.32c.3.13.63.26,1,.38l.58.19.43.11A15.4,15.4,0,0,1,454.33,155.55Zm14,2.1a11.91,11.91,0,0,0,1.46-1,4.19,4.19,0,0,0,.33-.26c.21-.16.41-.34.59-.5a13,13,0,0,0,1.37-1.48A15.8,15.8,0,0,1,468.35,157.65Zm-6.7,61-14.48-20.52c2.37,3.48,7.72,11.18,14.5,20.91,5,7.2,10.83,15.51,16.81,24h.37Z"/><path class="cls-2" d="M472.14,154.4l0,0a15.8,15.8,0,0,1-3.75,3.2,5.54,5.54,0,0,1-.53.3q-.3.17-.6.3l-.32.15-.48.19-.39.13c-.13.05-.26.08-.39.12a5.18,5.18,0,0,1-.53.14l-.56.11h0c-.34.05-.68.09-1,.11h-1l-.45,0-.47,0L461,159l-.42-.09-.07,0-.18,0a15.4,15.4,0,0,1-6-3.31l-.1-.09a44.92,44.92,0,0,0,2.39-10.64,15.44,15.44,0,0,0,5.23,1,11.8,11.8,0,0,0,2.14-.35,18.31,18.31,0,0,0,4.37-1.68C469.28,147.72,470.79,153.26,472.14,154.4Z"/><path class="cls-2" d="M472.1,154.45a13,13,0,0,1-1.37,1.48c-.18.16-.38.34-.59.5a13.31,13.31,0,0,1-2.32,1.52A15.38,15.38,0,0,0,472.1,154.45Z"/><path class="cls-11" d="M472.1,154.45a13,13,0,0,1-1.37,1.48c-.18.16-.38.34-.59.5a13.31,13.31,0,0,1-2.32,1.52A15.38,15.38,0,0,0,472.1,154.45Z"/><path class="cls-11" d="M461.65,218.63l-14.48-20.52c2.37,3.48,7.72,11.18,14.5,20.91,5,7.2,10.83,15.51,16.81,24,14.77,21.06,30.57,43.4,38,53.43-5.93,2.95-11.57,7.54-11.94,13.83v.42a15.88,15.88,0,0,0-.64,2.57c-19.52-12.79-39.36-41-52.8-60.28h0l.32-.95a2.6,2.6,0,0,0-1.12-.19c-1.34-1.92-2.61-3.75-3.81-5.45-1.49-2.12-2.87-4-4.11-5.72h0c-.55-.76-1.08-1.46-1.59-2.11-11.53-14.92-11.56-46.34-11.56-46.7-.11-25.68,25-36.43,25-36.43l.1.09a11.39,11.39,0,0,0,1.3,1.06,2.8,2.8,0,0,0,.35.25,13.14,13.14,0,0,0,2.36,1.32c.3.13.63.26,1,.38l.58.19a3.22,3.22,0,0,0,.61.16l.07,0,.42.09.57.1.47,0,.45,0h1c.33,0,.67-.06,1-.11h0l.56-.11a5.18,5.18,0,0,0,.53-.14c.13,0,.26-.07.39-.12l.39-.13.48-.19a12.33,12.33,0,0,0,3.24-2c.21-.16.41-.34.59-.5a13,13,0,0,0,1.37-1.48l0,0a43.68,43.68,0,0,1,25.54,20.94c8.35,15.72,14.29,29.57,21.11,52.57h0c-1.3,8.19-5,11.33-5,11.33l-1.66.3A267.89,267.89,0,0,1,478.85,243Z"/><path class="cls-11" d="M451.43,252.06l-.32.95-.8-1.14A2.6,2.6,0,0,1,451.43,252.06Z"/><path class="cls-11" d="M531.21,290.8l-.46,3.06-1.58,10.48,0,.34-2.88,19.11-.12.77-15-.23-54.64-.84s-.95-47.78-4.37-66.16a28.9,28.9,0,0,1,1.6,3.13c1.51,2.55,3.24,5,4.8,7.47q3.47,5.61,7.17,11c2.82,4.13,5.78,8.17,8.89,12.08,9.34,11.71,20.29,22.3,33.17,29.93.05-.21.1-.41.14-.63h0c.7-3.7-.75-7.55-3-10.7-.15.38-.27.75-.38,1.08v-.41c.37-6.29,6-10.88,11.94-13.83-7.44-10-23.24-32.37-38-53.43-6-8.52-11.79-16.83-16.81-24-6.78-9.73-12.13-17.43-14.5-20.91l14.48,20.52L478.85,243a267.89,267.89,0,0,0,33.27-3.49l1.66-.3s3.71-3.14,5-11.33q.69,2.29,1.38,4.72c4.55,15.85,7.67,34.08,9.4,45.85C530.67,286,531.21,290.8,531.21,290.8Z"/><path class="cls-12" d="M451.43,252.06l-.32.95-.8-1.14A2.6,2.6,0,0,1,451.43,252.06Z"/><path class="cls-12" d="M507.9,320.34h0c0,.22-.09.42-.14.63-12.88-7.63-23.83-18.22-33.17-29.93-3.11-3.91-6.07-7.95-8.89-12.08q-3.72-5.43-7.17-11c-1.56-2.51-3.29-4.92-4.8-7.47a28.9,28.9,0,0,0-1.6-3.13,37.6,37.6,0,0,0-1-4.31c13.44,19.25,33.28,47.49,52.8,60.28a15.88,15.88,0,0,1,.64-2.57h0c.11-.33.23-.7.38-1.08C507.15,312.79,508.6,316.64,507.9,320.34Z"/><path class="cls-13" d="M525,294.1c-7.58-21.22-13.76-43.4-13.05-65.92.16-5.06.48-10.25-.73-15.19a95.56,95.56,0,0,0-11.46-27.43"/><path class="cls-14" d="M510.49,323.85a2.13,2.13,0,0,1,.65.51l-2.41-.08-.77,0-1.23,0c-.71,0-1.43,0-2.14,0-.36,0-.72,0-1.07,0a1.36,1.36,0,0,1-.45,0c-.09-.05-.15-.22-.2-.31a36.72,36.72,0,0,0-2.47-4.36,57.59,57.59,0,0,0-4.34-5.74,63.66,63.66,0,0,0-5-5.26c-1.4-1.32-2.89-2.53-4.27-3.89s-2.87-2.88-4.26-4.36c-2.77-3-5.41-6.06-8-9.23-3.11-3.91-6.07-7.95-8.89-12.08q-3.72-5.43-7.17-11c-1.56-2.51-3.29-4.92-4.8-7.47a28.9,28.9,0,0,0-1.6-3.13,37.6,37.6,0,0,0-1-4.31c13.44,19.25,33.28,47.49,52.8,60.28a15.88,15.88,0,0,1,.64-2.57,15.38,15.38,0,0,0,1.88,7.31,23.47,23.47,0,0,0,1.38,2.31c.22.32.44.64.68,1,.39.53.8,1.05,1.23,1.55s1,.95,1.13,1.41a9.94,9.94,0,0,1-1.92-.2c-.71,0-1.41,0-2.11,0l-2,.1-1,0c-.21,0-.56.11-.74,0"/><path class="cls-14" d="M517.45,297.78c-.3-.41-.63-.84-1-1.3-7.44-10-23.24-32.37-38-53.43-6-8.52-11.79-16.83-16.81-24-6.78-9.73-12.13-17.43-14.5-20.91l14.48,20.52L478.85,243l37.67,53.42Z"/><path class="cls-4" d="M485.57,109.91a9,9,0,0,0-4.93.66,12.77,12.77,0,0,1-2,.86,6.31,6.31,0,0,1-1.89.09A24.66,24.66,0,0,1,465,107.08a66.62,66.62,0,0,1-9.59-8.34A26,26,0,0,1,441.08,113a1.27,1.27,0,0,1-1.28,0,1.33,1.33,0,0,1-.34-.86c-.28-1.9-.93-3.91-2.52-5-1-.67-2.11-.38-3.18-.15,1.05-3.31,5.12-4.44,6.15-2.77,1.14,1.84,1,6,1,6,.56-.43,9.48-3.26,13.58-17,0,0,10.47,17,23.63,17,0,0,3.26-4,5.38-2.27A9.3,9.3,0,0,1,485.57,109.91Z"/><path class="cls-14" d="M461.67,219c-6.78-9.73-12.13-17.43-14.5-20.91l14.48,20.52C461.66,218.76,461.67,218.89,461.67,219Z"/><path class="cls-11" d="M454.33,155.55a15.4,15.4,0,0,0,6,3.31l-.43-.11-.58-.19c-.33-.12-.66-.25-1-.38a14.5,14.5,0,0,1-2.36-1.32l-.35-.25A11.39,11.39,0,0,1,454.33,155.55Z"/><path class="cls-2" d="M486.61,118.4c-.57,7.93-7.22,8.35-7.22,8.35-1.84,10.05-6.84,14.82-11,17.08a18.31,18.31,0,0,1-4.37,1.68,11.8,11.8,0,0,1-2.14.35,15.44,15.44,0,0,1-5.23-1c-10.7-4.2-12.32-19.76-12.32-19.76a12.86,12.86,0,0,1-4.24.56,7.47,7.47,0,0,1-.8,0,4.12,4.12,0,0,1-.51,0,3.5,3.5,0,0,1-.66-.1l-.37-.1a2.32,2.32,0,0,1-.37-.13l-.29-.13-.06,0-.28-.16a2.23,2.23,0,0,1-.3-.2,3.47,3.47,0,0,1-.37-.3l-.18-.17a1.19,1.19,0,0,1-.19-.2c-.06-.06-.12-.14-.18-.21a5.3,5.3,0,0,1-.34-.45c-.11-.16-.21-.32-.31-.49l-.27-.52c-.06-.12-.11-.24-.16-.36s-.21-.52-.3-.8-.17-.54-.25-.82a16.73,16.73,0,0,1-.37-1.82c0-.16-.05-.33-.07-.49-.05-.34-.08-.67-.11-1,0-.17,0-.34,0-.5a3.4,3.4,0,0,1,0-.45c0-.14,0-.27,0-.41a52,52,0,0,1,.32-7.72,5.74,5.74,0,0,1,.21-1c1.05-3.31,5.12-4.44,6.15-2.77,1.14,1.84,1,6,1,6,.56-.43,9.48-3.26,13.58-17,0,0,10.47,17,23.63,17,0,0,3.26-4,5.38-2.27a9.3,9.3,0,0,1,2.07,2C486.49,111.27,487,113.46,486.61,118.4Z"/><path class="cls-4" d="M437.19,105.54a3.84,3.84,0,0,1,2.43,3.2c.26,1.4.13,2.85.46,4.23a55.76,55.76,0,0,0,9-6.56A18.74,18.74,0,0,0,454.78,97c.05,1.85,1.48,3.32,2.85,4.55,4.82,4.32,10.31,8.25,16.65,9.5a6.87,6.87,0,0,0,3.37,0c.58-.19,1.11-.5,1.69-.68,2.15-.66,4.53.57,6.7,0a5.1,5.1,0,0,0,3.43-5.07,8.38,8.38,0,0,0-2.91-5.72A24.88,24.88,0,0,0,481,96l-8.09-4.19a27.39,27.39,0,0,0-6.1-2.56,21.65,21.65,0,0,0-7-.31A52.75,52.75,0,0,0,441.3,94.3a18.65,18.65,0,0,0-6.86,5.11,8.62,8.62,0,0,0-1.8,6.2c.05.38.11,1.23.47,1.46s.72-.19,1.08-.52A3.31,3.31,0,0,1,437.19,105.54Z"/><path class="cls-6" d="M518.79,227.91c-6.82-23-12.76-36.85-21.11-52.57a43.68,43.68,0,0,0-25.54-20.94c-1.35-1.14-2.86-6.68-3.78-10.57,4.19-2.26,9.19-7,11-17.08,0,0,6.65-.42,7.22-8.35.36-4.94-.12-7.13-1-8.49a9.3,9.3,0,0,0-2.07-2c-2.12-1.69-5.38,2.27-5.38,2.27-13.16,0-23.63-17-23.63-17-4.1,13.72-13,16.55-13.58,17,0,0,.14-4.11-1-6-1-1.67-5.1-.54-6.15,2.77a5.74,5.74,0,0,0-.21,1c-.39,3.75-1.6,16.1,4.54,17.47a3.5,3.5,0,0,0,.66.1,4.12,4.12,0,0,0,.51,0,7.47,7.47,0,0,0,.8,0,12.86,12.86,0,0,0,4.24-.56s1.62,15.56,12.32,19.76a44.92,44.92,0,0,1-2.39,10.64s-25.11,10.75-25,36.43c0,.36,0,31.78,11.56,46.7.51.65,1,1.35,1.59,2.11q-2.61-.54-5.1-1.24l-.76-.21c-31-8.92-14-63.68-13.16-67.5s3.82-26.74,2.55-64.1,29.29-39.9,29.29-39.9c8.35-1.28,17,3,17,3,22.07,12.31,17.4,39.48,17.4,61.55s16.56,40.75,25.9,69.2C519.4,213.41,519.73,222,518.79,227.91Z"/><path class="cls-15" d="M429.23,191.89c0,.36,0,31.78,11.56,46.7.51.65,1,1.35,1.59,2.11q-2.61-.54-5.1-1.24-.67-1.54-1.26-3.12a138.44,138.44,0,0,1-5.13-19.06c-.65-3-1.3-6-1.94-8.95-1.27-6-2.5-12-2.5-18.1,0-13.92,8.66-24.41,19.33-32.5,2.21-1.67,4.6-3.38,5.63-5.95a7.18,7.18,0,0,0-.56-6.33,23.65,23.65,0,0,0-2.89-3.29,17.62,17.62,0,0,1-4.06-7.53c-.52-2-.73-4.28-2.17-5.81-1.12-1.2-2.93-1.9-3.64-3.28a3.5,3.5,0,0,0,.66.1,4.12,4.12,0,0,0,.51,0,7.47,7.47,0,0,0,.8,0,12.86,12.86,0,0,0,4.24-.56s1.62,15.56,12.32,19.76a44.92,44.92,0,0,1-2.39,10.64S429.12,166.21,429.23,191.89Z"/><path class="cls-4" d="M468.36,143.83a15.13,15.13,0,0,1-7.44,1.31"/><path class="cls-16" d="M536.76,342.6a22.74,22.74,0,0,1-12.52-1c-5.94-2-18.68-9.73-21.06-17.36l7.95.12s19.1-.63,22.07-.84C533.2,323.49,534.52,331.5,536.76,342.6Z"/><path class="cls-2" d="M542,316.46a49.35,49.35,0,0,0-2.48,8.17c-.46,2.2-.92,4.67-2.75,6a6.07,6.07,0,0,1-2.18.9l-.88.17a26,26,0,0,1-16-2.52,25.77,25.77,0,0,1-6.56-4.83,26.33,26.33,0,0,1-3.24-4h0a24.37,24.37,0,0,1-1.59-2.76,14.87,14.87,0,0,1-1.76-6.85v-.42c.37-6.29,6-10.88,11.94-13.83l0,0a45.12,45.12,0,0,1,6.87-2.71h0l.9-.27.4-.11a8.83,8.83,0,0,1,3.71-.36,7.17,7.17,0,0,1,2.34.85,17.53,17.53,0,0,1,1.55,1c.81.56,1.59,1.16,2.35,1.78,1.4,1.11,2.74,2.29,4.09,3.46,2.31,2.05,4.76,4.31,5.35,7.34S543.2,313.54,542,316.46Z"/><path class="cls-17" d="M525.28,297.44a7.29,7.29,0,0,0,.78,3.31h0a9.54,9.54,0,0,0,4.27,4.27,10.56,10.56,0,0,0,2.24.82h0a13.54,13.54,0,0,0,3.66.44h0a18.2,18.2,0,0,0,3.45-.36"/><path class="cls-18" d="M603.79,137.72,546.71,280.57l-10.28,25.72h0l-3.67-.44h0a10.47,10.47,0,0,1-2.23-.82,9.54,9.54,0,0,1-4.27-4.27h0c1.79-4.45,4.94-12.23,8.92-22.06l57-141Z"/><path class="cls-19" d="M546.71,280.57l-10.28,25.72h0l-3.68-.44a10.47,10.47,0,0,1-2.23-.82,9.54,9.54,0,0,1-4.27-4.27c1.79-4.45,4.93-12.23,8.92-22.07C535.15,278.69,538.74,282.31,546.71,280.57Z"/><g class="cls-20"><path class="cls-7" d="M618.51,131l-1.39-.74a4.66,4.66,0,0,0,3.74-4.58l1.39.74A4.66,4.66,0,0,1,618.51,131Z"/><polygon class="cls-7" points="622.25 126.43 620.86 125.69 620.91 100.1 622.3 100.84 622.25 126.43"/><path class="cls-7" d="M619.15,96.92l1.39.74a3.5,3.5,0,0,1,1.76,3.18l-1.39-.74A3.49,3.49,0,0,0,619.15,96.92Z"/><path class="cls-7" d="M619.26,96.7l1.4.74a3.4,3.4,0,0,0-2.09-.35l-1.39-.74A3.37,3.37,0,0,1,619.26,96.7Z"/><polygon class="cls-9" points="570.19 104.3 568.79 103.56 617.18 96.6 618.57 97.34 570.19 104.3"/><polygon class="cls-7" points="570.19 104.06 568.79 103.32 617.18 96.35 618.57 97.09 570.19 104.06"/><path class="cls-9" d="M617.18,96.6a3.17,3.17,0,0,1,2,.32l1.39.74a3.16,3.16,0,0,0-2-.32Z"/><polygon class="cls-7" points="570.12 137.98 568.73 137.24 617.12 130.27 618.51 131.01 570.12 137.98"/><path class="cls-7" d="M568.16,137.65l-1.39-.74a3.15,3.15,0,0,0,2,.33l1.39.74A3.15,3.15,0,0,1,568.16,137.65Z"/><path class="cls-7" d="M568.05,137.88l-1.4-.74a3.7,3.7,0,0,1-1.86-3.38l1.39.74A3.73,3.73,0,0,0,568.05,137.88Z"/><path class="cls-9" d="M568.16,137.65l-1.39-.74a3.49,3.49,0,0,1-1.76-3.18l1.39.74A3.49,3.49,0,0,0,568.16,137.65Z"/><path class="cls-9" d="M566.45,108.89l-1.39-.74a4.68,4.68,0,0,1,3.73-4.59l1.4.74A4.68,4.68,0,0,0,566.45,108.89Z"/><path class="cls-9" d="M618.57,97.34a3.28,3.28,0,0,1,3.73,3.5l0,25.59a4.66,4.66,0,0,1-3.74,4.58l-48.39,7a3.3,3.3,0,0,1-3.72-3.51l.05-25.58a4.68,4.68,0,0,1,3.74-4.59Z"/><path class="cls-7" d="M618.57,97.09a3.5,3.5,0,0,1,4,3.72l0,25.58a5,5,0,0,1-4,4.86l-48.39,7a3.49,3.49,0,0,1-3.94-3.72l.05-25.58a5,5,0,0,1,4-4.86Zm3.68,29.34,0-25.59a3.28,3.28,0,0,0-3.73-3.5l-48.38,7a4.68,4.68,0,0,0-3.74,4.59l-.05,25.58a3.3,3.3,0,0,0,3.72,3.51l48.39-7a4.66,4.66,0,0,0,3.74-4.58"/><path class="cls-7" d="M566.23,108.92l-1.4-.74a5,5,0,0,1,4-4.86l1.4.74A5,5,0,0,0,566.23,108.92Z"/><polygon class="cls-9" points="566.4 134.47 565.01 133.73 565.06 108.15 566.45 108.89 566.4 134.47"/><polygon class="cls-7" points="566.18 134.5 564.78 133.76 564.83 108.18 566.23 108.92 566.18 134.5"/></g><g class="cls-20"><polygon class="cls-21" points="605.92 132.52 604.93 132.03 604.98 108.14 605.96 108.62 605.92 132.52"/><polygon class="cls-22" points="605.96 108.62 604.98 108.14 609.35 107.46 610.34 107.94 605.96 108.62"/><polygon class="cls-22" points="589.6 135.06 588.61 134.57 604.93 132.03 605.92 132.52 589.6 135.06"/><polygon class="cls-22" points="585.27 111.84 584.28 111.35 588.65 110.67 589.64 111.16 585.27 111.84"/><polygon class="cls-21" points="585.21 140.79 584.23 140.3 584.28 111.35 585.27 111.84 585.21 140.79"/><polygon class="cls-23" points="610.34 107.94 610.28 136.89 585.21 140.79 585.27 111.84 589.64 111.16 589.6 135.06 605.92 132.52 605.96 108.62 610.34 107.94"/></g><path class="cls-16" d="M554.43,402.23s-48.4,39.9-109.95,8.49c0,0,6.49-35.93,9.94-62.7h83.46C541.81,366.68,547.84,391,554.43,402.23Z"/><rect class="cls-24" x="543.65" y="347.39" width="6.6" height="235.48" transform="translate(1093.91 930.26) rotate(-180)"/><rect class="cls-24" x="450.8" y="347.39" width="6.6" height="235.48" transform="translate(908.21 930.26) rotate(-180)"/><rect class="cls-25" x="133.96" y="347.39" width="6.6" height="235.48" transform="translate(274.53 930.26) rotate(-180)"/><rect class="cls-24" x="167.89" y="347.39" width="6.6" height="235.48" transform="translate(342.39 930.26) rotate(-180)"/><rect class="cls-10" x="133.26" y="328.1" width="328.5" height="19.29" transform="translate(595.03 675.49) rotate(-180)"/><rect class="cls-26" x="450.11" y="328.1" width="100.85" height="19.29" transform="translate(1001.06 675.49) rotate(-180)"/><circle class="cls-27" cx="89.56" cy="143.35" r="16.03"/><circle class="cls-1" cx="47.17" cy="185.47" r="7.34"/><circle class="cls-1" cx="9.89" cy="486.53" r="9.89"/><path class="cls-28" d="M180.78,346.48l-16,11.86,0,0,.05-.05,0-.06.07-.07.08-.07.09-.09.21-.22.12-.12,1.38-1.33.34-.31.55-.51.4-.37a68.94,68.94,0,0,1,6.76-5.46c.19-.15.4-.28.6-.41a27,27,0,0,1,3.51-2.05l.52-.24A11.82,11.82,0,0,1,180.78,346.48Z"/><path class="cls-29" d="M303.64,544.49c12.59-5,11.9-19.46,11.9-19.46-3.34,6.68-9.05,7.57-9.05,7.57,10.81-6.19,5.61-22.8,5.61-22.8.09,10.69-9.47,14.13-10.35,14.42,4.66-2,5.62-13,5.62-13C300.3,475.88,277,495.94,277,495.94s20.46,13.27,3.65,26.94l-.24.33c-3.08-6.48-7.55-10-10-10.65-4.32-1.19-10.61-38.33-10.61-38.33s-18.08-33.61-19.06-38.14S239,422.93,239,422.93s-4.32-9.05-3.34-15.14,0-38.33,0-38.33h0c5.12-13.55,8.06-40.67,1.77-44S212.1,344,212.1,344A53.67,53.67,0,0,0,195,341a46,46,0,0,0-5.68,1.06c-1.38.31-12.55-13.47-18.26-20.66a3.38,3.38,0,0,0-5.74.73c-3.81,8.63-10.18,26.76-3.65,40.12a29.06,29.06,0,0,0-2.05,6.86c-3.78,21.84-.76,38.14,6.46,46-.32,3.07-4.84,44.69-8.43,56.17-3.73,11.92,3.53,43.11,3.53,43.11l.59,58.58-10,7.66s-.17.09-.43.26c-1.89,1.22-8.81,6.48,2.39,12.32,10.4,5.44,20.4-6.57,23.77-11.23.77-1.07,1.19-1.75,1.19-1.75l.21,0c12,1.7,13.94-2.38,13.94-2.38l28.86-.59h.23v8.65c-2.74,4.7-3.92,8-4.21,10.23-.72,5.7,4.21,5.1,4.21,5.1,20.45,1.77,22-6.1,22-6.1-.19-5.3,1.38-7.26,1.38-7.26,12.78,11,23.79,5.1,24.18,2.16.3-2.21,2.35-6.85,3.37-9h0l.56-1.18a108.75,108.75,0,0,0,5.31-13.91c11.93.78,19.49-2,23.9-4.7a17.69,17.69,0,0,0,5.19-4.48,10.81,10.81,0,0,1-9.14-1,19.82,19.82,0,0,0,16.12-13.07C310,545.37,303.64,544.49,303.64,544.49ZM231.49,367.2l-11.8-14.34C220.09,353,229.92,364.26,231.49,367.2Zm-65.75,45.51,5.49,3.83A12,12,0,0,1,165.74,412.71Zm-.92-54.4a.07.07,0,0,1,0-.05l.06-.06.07-.07s0-.06.08-.07a.2.2,0,0,1,.09-.09,2.18,2.18,0,0,1,.21-.22l.12-.13,1.38-1.32.33-.31.56-.52.4-.36a67.78,67.78,0,0,1,6.76-5.47c.2-.15.4-.28.6-.41a28.15,28.15,0,0,1,3.51-2.05l.52-.24c.41-.18.83-.34,1.23-.47ZM184.9,562.22l.13-1.06,1.34-11.25s5,8.48,8.83,9.42a2.54,2.54,0,0,0,.54.09Zm-4-51.62,32.62,23.9C198,526.15,182.34,511.9,180.94,510.6Zm36.53-97,17.95-15C231.13,405.32,218.26,413.09,217.47,413.57Z"/><path class="cls-28" d="M180.78,346.48l-16,11.86,0,0,.05-.05,0-.06.07-.07.08-.07.09-.09.21-.22.12-.12,1.38-1.33.34-.31.55-.51.4-.37a68.94,68.94,0,0,1,6.76-5.46c.19-.15.4-.28.6-.41a27,27,0,0,1,3.51-2.05l.52-.24A11.82,11.82,0,0,1,180.78,346.48Z"/><path class="cls-28" d="M231.49,367.21,219.7,352.86C220.09,353,229.92,364.27,231.49,367.21Z"/><path class="cls-28" d="M280.43,523.56a2.37,2.37,0,0,1,0-.24A2.27,2.27,0,0,0,280.43,523.56Z"/><path class="cls-28" d="M302.58,561.16c-4.41,2.71-12,5.48-23.89,4.7,3.33-9.26,2-37.58,1.75-42.05C280.82,528.71,284,562.12,302.58,561.16Z"/><path class="cls-28" d="M246.85,525.08c-1.62,4.72-1.58,62.76-1.58,62.76s.7-10.87,8.8-12.2"/><path class="cls-30" d="M221.48,502.28c-1.13,3-3.08,6.27-2.85,9.56.06.89.25,1.76.39,2.65a27.29,27.29,0,0,1,.19,5.19,39.63,39.63,0,0,0,.09,4.09c.2,3.41.12,6.83.34,10.24.08,1.26.16,2.52.23,3.78.65,11,1.14,22,1.71,33-2.35.64-4.82-.32-7-1.33q-5.11-2.31-10-5.09c-1.65-.93-3.28-1.91-4.89-2.92-.78-.49-1.53-1-2.32-1.5a8.28,8.28,0,0,0-2.06-.56,4.94,4.94,0,0,1-1.45-.84,23,23,0,0,1-2.9-2.5,24,24,0,0,1-2.46-3c-.75-1.06-1.58-2.06-2.3-3.14a.71.71,0,0,1-.1-.14c-.26,1.24-.51,2.49-.76,3.74-.13.64-.26,1.28-.4,1.92-.17.88-.35,1.76-.53,2.64-.26,1.29-.62,2.49-1,3.73s0,2.68-.28,4c-.31,1.77-1.12,3.43-1.4,5.21-1.28-3.53-.86-7.34-1.62-11-2.15-10.33-7-19.85-9.18-30.18-3.06-14.73-5.88-29.61-6.26-44.69-.56-21.85,5.2-43,4.6-64.72a15.62,15.62,0,0,0-.7-5c-.86-2.34-2.72-4.15-4.28-6.1-7.16-8.92-8-22.81-.86-31.77,1.51-1.91,4.13-3.69,6.22-2.43,2.9,1.76.89,6.75,3.06,9.37,1.47,1.78,4.31,1.66,6.4.67s3.8-2.66,5.88-3.67a10.92,10.92,0,0,1,10.33.54c1.26.78,2.34,1.81,3.63,2.53,4.74,2.63,10.84.26,14.84-3.41,2.69-2.48,5.87-5.81,9.31-4.57,2.92,1.06,3.74,4.77,3.77,7.87.1,9.05-3.06,15.71-7,23.39s-2.72,18.31-.94,26.43c2.12,9.64,5.81,18.91,7.42,28.65a68.68,68.68,0,0,1-1.39,28.78A110.38,110.38,0,0,1,221.48,502.28Z"/><path class="cls-28" d="M235.42,398.56c-4.35,6.87-17.56,14.78-18,15Z"/><path class="cls-28" d="M218.4,510.19c0,.59,4.42,16.66,4.42,20.64v47"/><path class="cls-28" d="M171.23,416.54a12.09,12.09,0,0,1-5.49-3.83Z"/><path d="M182.6,382c-1.2.77-2.36,1.94-2.32,3.36a4.05,4.05,0,0,0,.83,2.14c2,3,5.81,4.93,9.33,4.11a11.66,11.66,0,0,0,3-1.23c3.06-1.71,7.13-6.83,2.38-9.07A13.91,13.91,0,0,0,182.6,382Z"/><path class="cls-28" d="M179.65,580.17s3.18-10.33,5.06-17.94,5.07-39.72,5.07-39.72"/><path class="cls-28" d="M221.64,577.22l-28.86.59s-1.94,4.08-13.94,2.38q2.1-9.06,4.93-17.93a1.69,1.69,0,0,1,.36-.72,1.79,1.79,0,0,1,.87-.37h0l-.13,1.06,10.84-2.8a2.54,2.54,0,0,1-.54-.09,29.83,29.83,0,0,1,5.77.84,32.62,32.62,0,0,1,6,2.24c4.18,1.87,8.36,3.74,12.39,5.91a4.49,4.49,0,0,1,1.54,1.14,4.33,4.33,0,0,1,.64,2A27.54,27.54,0,0,1,221.64,577.22Z"/><path class="cls-31" d="M221.58,570.77c-2.35.64-4.82-.32-7-1.33q-5.11-2.31-10-5.09c-1.65-.93-3.28-1.91-4.89-2.92-.78-.49-1.53-1-2.32-1.5a8.28,8.28,0,0,0-2.06-.56,4.94,4.94,0,0,1-1.45-.84,23,23,0,0,1-2.9-2.5,24,24,0,0,1-2.46-3c-.75-1.06-1.58-2.06-2.3-3.14.1-1,.24-2,.38-3.06q.92-6.79,1.84-13.57c.43-3.17.11-8,1.69-10.81,10.12,5.47,18.23,13,29.8,15.3C220.52,548.78,221,559.78,221.58,570.77Z"/><path class="cls-28" d="M177.44,581.91c-3.37,4.66-13.37,16.67-23.77,11.23-11.2-5.84-4.28-11.1-2.39-12.32a45.8,45.8,0,0,0,10.27,1.75A96,96,0,0,0,177.44,581.91Z"/><path class="cls-28" d="M272.81,581c-1,2.19-3.07,6.83-3.37,9-.39,2.94-11.4,8.84-24.18-2.16,0,0-1.57,2-1.38,7.26,0,0-1.56,7.87-22,6.1,0,0-4.93.6-4.21-5.1a17.84,17.84,0,0,0,4.31.42,56.47,56.47,0,0,0,9.89-1.75c5.53-1.32,11.81-3.23,14.08-8.44a3.4,3.4,0,0,1,.84-1.39,3,3,0,0,1,2.44-.21A35.69,35.69,0,0,0,272.81,581Z"/><path class="cls-31" d="M213,415.14c-5.14,6.87-14.18,9.8-22.76,10a23.94,23.94,0,0,1-9.33-1.28c-2.46-1-5.34-2.82-6.32-5.36,2.21-1,6.48.27,9,.36a94,94,0,0,0,9.93-.19A91.53,91.53,0,0,0,213,415.14Z"/><path class="cls-32" d="M235.88,340.31c0,2.41-.07,4.83-.27,7.23a87.1,87.1,0,0,1-1.73,11.59c-.17.78-.46,1.7-1.23,1.93-.92.27-1.74-.62-2.28-1.4-1.5-2.18-3-4.38-4.42-6.59a5.49,5.49,0,0,1-1.2-3.07,1.27,1.27,0,0,1,0-.28,5.85,5.85,0,0,1,.95-2.21,70.65,70.65,0,0,1,6-9C233.93,335.84,235.85,336.59,235.88,340.31Z"/><path class="cls-32" d="M174.13,345.67c-.18,3.47-7,7-9.88,8.77a1.66,1.66,0,0,1-1.12.35c-.74-.14-.93-1.11-.93-1.87a78.35,78.35,0,0,1,3-22c.27-.94.83-2.08,1.8-2s1.29,1,1.58,1.74q1.44,3.88,2.89,7.76c.39,1.06,1.25,2.64,1.89,4.16A7.94,7.94,0,0,1,174.13,345.67Z"/><path class="cls-33" d="M174.13,345.67c-.18,3.47-7,7-9.88,8.77a1.66,1.66,0,0,1-1.12.35c-.74-.14-.93-1.11-.93-1.87a79.8,79.8,0,0,1,1.16-14.06c1.54.78,3.37,2.39,4.63,2.81a18.18,18.18,0,0,0,5.34.91A7.94,7.94,0,0,1,174.13,345.67Z"/><path class="cls-33" d="M235.61,347.54a87.1,87.1,0,0,1-1.73,11.59c-.17.78-.46,1.7-1.23,1.93-.92.27-1.74-.62-2.28-1.4-1.5-2.18-3-4.38-4.42-6.59a5.49,5.49,0,0,1-1.2-3.07,1.27,1.27,0,0,1,0-.28C228.5,349.23,231.93,349.25,235.61,347.54Z"/><path class="cls-7" d="M616.82,96.66l.55.47.69.15,1-.15.68,0-.5-.36-.71-.24-.72-.09-1,0Z"/><path class="cls-7" d="M565,108s0,.56,0,.56l.34.5.79.18.24-.62-.24-.89-.63-.27Z"/><polygon class="cls-7" points="565.01 133.63 565.59 133.81 566.22 134.25 566.39 135.45 567.04 136.93 567.35 137.33 566.25 136.79 565.27 135.38 564.9 134.3 565.01 133.63"/></g></g></svg>