<svg xmlns="http://www.w3.org/2000/svg" viewBox="0 0 615.26 561.09"><defs><style>.cls-1,.cls-21{fill:#49a4a5;}.cls-1{opacity:0.15;}.cls-2{opacity:0.3;}.cls-10,.cls-3,.cls-4{fill:none;}.cls-3,.cls-4{stroke:#1d545b;stroke-linecap:round;stroke-linejoin:round;stroke-width:3px;}.cls-4{stroke-dasharray:12.06 12.06;}.cls-5{fill:#14365c;}.cls-6{fill:#f8b298;}.cls-7{fill:#ae6a00;}.cls-8{fill:#f3a953;}.cls-9{fill:#e59a38;}.cls-10{stroke:#e59a38;stroke-miterlimit:10;stroke-width:0.5px;}.cls-11{fill:#f69582;}.cls-12{fill:#3a2509;}.cls-13{fill:#367d8a;}.cls-14{fill:#2f737c;}.cls-15{fill:#48919b;}.cls-16{fill:#3f8489;}.cls-17{fill:#367e84;}.cls-18{fill:#2f6f77;}.cls-19{fill:#dbdbdb;}.cls-20{fill:#d3d3d3;}.cls-22{fill:#3e9694;}.cls-23{fill:#1a3d67;}</style></defs><title>자산 9</title><g id="레이어_2" data-name="레이어 2"><g id="함께_해주실_거죠_" data-name="함께 해주실 거죠?"><path class="cls-1" d="M605,522.91c-15.46,5.59-32.81-1.86-48.51-1.86-9.68-1.13-19.37-2.26-29.1-2.92a301.52,301.52,0,0,0-44.07.26c-4.57.36-10.44,2.13-10.53,6.71a7,7,0,0,0,1,3.48c2.52,4.44,7.55,6.89,12.53,8s10.15,1.15,15.15,2.17a6.78,6.78,0,0,1,3.06,1.24c2,1.72,1.53,5.21-.33,7.13-7.21,7.38-25.36,9.34-35,11a230.46,230.46,0,0,1-40.31,3c-27.08-.15-54-3.62-81-5.56-91-6.53-182.57,5.86-273.7.69-7.94-.45-18.7-4.74-16.47-12.37,2.41-8.25,17.69-7,19.29-15.4,1.24-6.59-7.29-10.31-13.94-11.22-21-2.85-42-2.9-63.09-1.79V438.79c35.59-5.63,72.29-5.07,108.49-4.44,24.42,0,48.87.87,73.29,1.32,23.13.43,46.5,0,69.56,2.18,3.41.32,7.41,1.11,8.81,4.23,1.49,3.3-1,7.15-4.15,9s-6.83,2.44-10,4.18a10.75,10.75,0,0,0-3.81,3.53,6,6,0,0,0-.81,5.29c1.2,3.29,5.23,4.4,8.69,4.93a161.21,161.21,0,0,0,72.14-5.39c1.71-.53,3.81-1.76,3.34-3.49a3,3,0,0,0-1.19-1.5c-2.52-1.87-5.83-2.15-8.77-3.25s-5.84-3.84-5.13-6.9a7.16,7.16,0,0,1,2.15-3.29c12.54-12.33,38.39-8.67,54.52-9.27q31.37-1.15,62.75-.78,62.76.76,125.24,7.69,15.6,1.72,31.14,3.84c4.2.57,8.63,1.27,11.88,4s4.61,8.16,1.63,11.17c-1.81,1.84-4.59,2.25-7.16,2.56l-23.32,2.79c-7.6.91-17.64,5-15.87,12.47.65,2.73,2.89,4.77,5.15,6.44A51.4,51.4,0,0,0,585,495.9c12,.94,28.84,1.11,30.21,13.06C615.91,515.14,610.82,520.8,605,522.91Z"/><g class="cls-2"><path class="cls-3" d="M105.92,128.08c-1.67-1-3.37-2.11-5.06-3.22"/><path class="cls-4" d="M91.05,117.85c-10.74-8.54-19.42-19-19.2-32.25C72,76,77.2,67.07,84.15,60.48s15.56-11.12,24.18-15.3A450.2,450.2,0,0,1,250.76,3.52C273.27.84,296.53-.07,318.2,6.58c12.6,3.87,24.28,10.18,36.23,15.74A329.1,329.1,0,0,0,481.78,52.81c10.49.36,21.26.26,31.08,4S531.52,69.05,532,79.54c.59,14.67-14.78,25.07-29.18,27.91-33.36,6.58-67.46-10.6-101.08-9.6"/><path class="cls-3" d="M395.67,98.24q-3,.29-5.95.81"/></g><path class="cls-5" d="M374.57,476.25a10.65,10.65,0,0,0-1.84,3c-.81,1.79-1.57,3.6-2.26,5.44a8.06,8.06,0,0,0-.75,4,7,7,0,0,0,1.1,2.62c2.78,4.47,7.23,7.58,11.61,10.51q5.61,3.75,11.31,7.35c4.52,2.86,9.37,5.74,14.72,5.87a7.42,7.42,0,0,0,3.49-.62c3.07-1.51,2.31-5.84,1.22-8.45a27.37,27.37,0,0,0-3.22-5.3,158.68,158.68,0,0,0-12.12-15.35,76.9,76.9,0,0,0-7-6.75c-2.32-1.95-4.68-4.23-7.84-4.48-1.76-.14-3.21.53-4.9.79C376.7,475.12,375.64,475.13,374.57,476.25Z"/><path class="cls-5" d="M474.06,467.6a10.52,10.52,0,0,0,1.54,3.18q1.59,2.49,3.34,4.86a8.15,8.15,0,0,0,2.93,2.79,7,7,0,0,0,2.8.51c5.26.09,10.3-1.95,15.13-4q6.19-2.67,12.32-5.5c4.86-2.24,9.91-4.74,12.93-9.16a7.41,7.41,0,0,0,1.38-3.27c.4-3.4-3.65-5.12-6.43-5.62a27.92,27.92,0,0,0-6.2-.18A158.71,158.71,0,0,0,494.33,453a76.54,76.54,0,0,0-9.47,2.21c-2.9.88-6.1,1.62-8,4.14-1.08,1.4-1.3,3-2,4.54C474.26,465.19,473.7,466.08,474.06,467.6Z"/><path class="cls-6" d="M387.8,465.82c0,.26-.05.51-.07.77q-.32,3.2-.6,6.39c-.11,1.08-.21,2.17-.31,3.25a2.39,2.39,0,0,1-.22.91,2,2,0,0,1-.87.76c-2.55,1.4-5.69,1.25-8.47.42a1.81,1.81,0,0,1-.88-.48,1.78,1.78,0,0,1-.25-1.25c.05-1,.09-2.06.14-3.09s.06-1.88.1-2.81-.05-2,.08-2.95a4.42,4.42,0,0,1,.28-1.14c1.18-2.86,7.65-2.46,10.17-2a1.14,1.14,0,0,1,.8.41A1.27,1.27,0,0,1,387.8,465.82Z"/><path class="cls-6" d="M486.91,457.85a23.26,23.26,0,0,1-6.67,3.68,1.51,1.51,0,0,1-1.06.09,1.53,1.53,0,0,1-.56-.54c-.68-.93-1.8-2.13-2.86-3.4-1.31-1.58-2.54-3.27-2.73-4.71-.35-2.62,4.6-4.48,6.47-5.66a70.6,70.6,0,0,0,4,6.13C484.56,455,485.71,456.42,486.91,457.85Z"/><polygon class="cls-7" points="197.77 371.91 185.64 497.53 191.71 497.53 221.34 370.36 197.77 371.91"/><polygon class="cls-7" points="339.67 497.52 333.61 497.52 313.91 412.98 312.13 405.35 307.94 387.35 304.95 374.51 303.98 370.36 327.54 371.92 327.78 374.39 329.39 391.06 339.67 497.52"/><path class="cls-6" d="M388.23,146.64a4.61,4.61,0,0,1-.16.64,8.48,8.48,0,0,1-2.09,3.07,37.17,37.17,0,0,1-15.54,9.05,76.4,76.4,0,0,1-16.39,2.88c-.5.05-1,.09-1.5.12-2.44.19-5.13.26-7.06-1.25a5.86,5.86,0,0,1-2-5.53,8.79,8.79,0,0,1,2.19-4,4.6,4.6,0,0,0,1.21-3.09,44.75,44.75,0,0,1,2.37-9.46,45.31,45.31,0,0,1,10-16c1.17-1.2,3-2.41,4.37-1.47,1.08.73,1.09,2.36.64,3.58a17.87,17.87,0,0,0-1.41,3.65c-.16,1.3.7,2.89,2,2.79a2.88,2.88,0,0,0,1.42-.65c4.12-2.93,7.58-7.2,12.5-8.39a4.84,4.84,0,0,1,2.36-.09,4.34,4.34,0,0,1,2.76,2.75,14.65,14.65,0,0,1,.72,4,59.32,59.32,0,0,0,2.86,13.09A9.11,9.11,0,0,1,388.23,146.64Z"/><path class="cls-6" d="M360.48,318.64c-1.31,1.54-3.71,1.35-5.67.9a99.49,99.49,0,0,1-14-4.73L334,312.14a17.13,17.13,0,0,1-4.88-2.57,11.09,11.09,0,0,1-2.38-3c-.2-.35-.38-.7-.56-1.06-.82-1.67-2.18-4.44-2.1-6.34s2.47-2.92,3.87-3.62a6.28,6.28,0,0,1,3.12-.92,6.16,6.16,0,0,1,2.53,1c8.35,4.62,16.62,9.48,24,15.47a10.71,10.71,0,0,1,3,3.3h0A4,4,0,0,1,360.48,318.64Z"/><path class="cls-6" d="M225.32,116,226,128.6c-12.12-.35-18.13-3.76-18.13-3.76,1-1.9.35-9.87.35-9.87-6.24-1.91-11.27-15.59-11.27-15.59-4.15-1.22-5.88-9.54-5.88-9.54l-.69-2.43-1.58-5.62-2.18-7.71L199.5,62.23s-.69,1.1,19.93-2.7-1.21-.35,12.3,3.46c8.32,2.35,9.81,7.26,9.73,10.69a11.22,11.22,0,0,1-.71,3.72s.16,1,.34,2.64C242,88.54,243.3,114.71,225.32,116Z"/><path class="cls-8" d="M266.73,288.23C242.12,310.41,204,320.46,204,320.46s-13.86-148.66-10.4-170.84,14.21-24.78,14.21-24.78,9.94,3.76,18.13,3.76c20.11,0,31,61.76,36.33,108.46.3,2.64.58,5.24.85,7.77C265.74,269.48,266.73,288.23,266.73,288.23Z"/><path class="cls-8" d="M219.84,174.28c0,.54.09,1.07.17,1.61-.14-.33-.27-.65-.41-1Z"/><path class="cls-8" d="M323.54,191.22c-17.9,16.79-37,34.49-37.41,33.85L284,221.15s0,0,0,0l-3.67-6.62a95.58,95.58,0,0,0,21.6-9.17C309.37,201.15,316.47,196.2,323.54,191.22Z"/><path class="cls-9" d="M263.13,244.83c-4.85-5.19-10.26-11.51-11.2-12.6a197.36,197.36,0,0,1-17.83-23.1c-5.37-8.42-9.35-18.15-12.56-27.58a32.89,32.89,0,0,1-1.53-5.66c7.78,18.2,24.52,40.51,42.27,61.17C262.58,239.7,262.86,242.3,263.13,244.83Z"/><line class="cls-10" x1="286.13" y1="225.07" x2="235.02" y2="133.43"/><path class="cls-9" d="M323.54,191.22c-17.9,16.79-37,34.49-37.41,33.85L284,221.15s0,0,0,0l-3.67-6.62a95.58,95.58,0,0,0,21.6-9.17C309.37,201.15,316.47,196.2,323.54,191.22Z"/><path class="cls-8" d="M338.23,296.89,322.63,300s-24.06-22.26-49.4-50.28c-21.56-23.84-44.05-51.84-53.45-73.84-.08-.54-.14-1.07-.17-1.61l1.65-4.39L235,133.33l.05.1c.46.9,3.92,7.58,9.36,17.78l1.45,1.28-10.58-19.06-.05-.1,48,61.27a3.64,3.64,0,0,0,5.08.66l58.48-44.6s4.5,8.66,7.62,11.44c0,0-14.95,14.2-30.86,29.12-7.07,5-14.17,9.93-21.68,14.19a95.58,95.58,0,0,1-21.6,9.17l3.67,6.62,4.1,7.42,0,.06.21.34q2.25,3.73,4.51,7.39c.73,1.2,1.46,2.38,2.19,3.57l.3.47C311.65,266.81,327.75,289.61,338.23,296.89Z"/><path class="cls-9" d="M295,240c-.73-1.19-1.46-2.37-2.19-3.57q-2.26-3.66-4.51-7.39Z"/><line class="cls-10" x1="280.26" y1="214.58" x2="236.29" y2="135.72"/><path class="cls-11" d="M388.07,147.28a8.48,8.48,0,0,1-2.09,3.07,37.17,37.17,0,0,1-15.54,9.05,76.4,76.4,0,0,1-16.39,2.88.83.83,0,0,1,.62-.74,124.52,124.52,0,0,0,23.89-9.3C381.75,150.61,384.86,148.84,388.07,147.28Z"/><path class="cls-11" d="M191.3,91.86l-.05-.08h0Z"/><path class="cls-11" d="M240.75,77.4s.16,1,.34,2.64a85.9,85.9,0,0,0-15.86,1,49.92,49.92,0,0,0-11.72,3.38c-.95.41-1.87.86-2.79,1.34-.66.35-1.67,1.24-2.41,1.19-1.37-.09-2.11-2.2-2.61-3.2a6.58,6.58,0,0,0-6.29-4,9.45,9.45,0,0,0-7.65,3.79,8,8,0,0,0-1.43,3.92l-1.58-5.62a18.71,18.71,0,0,1,5.48-9.61A25.76,25.76,0,0,1,202,67.47a42.33,42.33,0,0,1,24.17-2.35c4.95,1,9.84,2.95,13.48,6.45a13,13,0,0,1,1.8,2.11A11.22,11.22,0,0,1,240.75,77.4Z"/><path class="cls-12" d="M191.55,91.64c-14.71-6-14.54-24.8-14.54-24.8C175.83,36.31,207.36,33,207.36,33s42.39-3.23,43.55,21.6c0,0,3.06,22.29-13.75,23.5s-27.2,5-28.24,6.42c0,0-1.91-11.79-11.44-7.45S191.55,91.64,191.55,91.64Z"/><path class="cls-11" d="M226.24,116.13A23.14,23.14,0,0,1,226,119a30.05,30.05,0,0,1-11.21-2.79,7.67,7.67,0,0,1-.7-.36C214.36,115.12,226.23,116.67,226.24,116.13Z"/><path class="cls-13" d="M378.92,99.27l-11.51,44.34-2.12,8.16a2.18,2.18,0,0,1-2.89,1.49l-1.09-.42a2.18,2.18,0,0,1-1.34-2.56l0-.2,12.91-52.36a2.18,2.18,0,0,1,2.68-1.59l1.77.48A2.19,2.19,0,0,1,378.92,99.27Z"/><path class="cls-14" d="M367.41,143.61l-2.12,8.16a2.18,2.18,0,0,1-2.89,1.49l-1.09-.42a2.18,2.18,0,0,1-1.34-2.56l0-.2.65-.43a45.63,45.63,0,0,0,6-5.32Z"/><g class="cls-2"><rect class="cls-3" x="401.91" y="177.53" width="80.74" height="51.98" rx="9.19" transform="translate(-38.92 129.52) rotate(-15.97)"/><polyline class="cls-3" points="399.61 191.55 442.28 203.52 471.18 170.31"/></g><g class="cls-2"><polygon class="cls-3" points="141.57 117.37 119.16 134.24 178.23 155.35 141.57 117.37"/><polygon class="cls-3" points="113.5 142.24 94.89 163.44 178.23 155.35 113.5 142.24"/><line class="cls-3" x1="119.16" y1="134.24" x2="125.55" y2="144.68"/><polyline class="cls-3" points="109.38 162.03 111.52 176.41 178.23 155.35"/></g><path class="cls-15" d="M123.43,356.27l12.26-3.1a12.47,12.47,0,0,1,5.44-.53c1.79.38,3.51,1.84,3.53,3.68a5.52,5.52,0,0,1-1.24,3.08c-3.95,5.58-10.06,9.15-15.68,13.05-4.92,3.41-9.81,7.5-12.22,12.88a19,19,0,0,0-.87,2.36,2,2,0,0,0-.06,1.26,1.78,1.78,0,0,0,1.13.92,7.2,7.2,0,0,0,1.83.45c4,.44,8-2.29,12-3.56,2-.63,4.67-.6,5.53,1.29s-.88,3.95-2.6,5.13c-3.38,2.34-7.24,3.86-10.85,5.81-.51.27-1,.55-1.48.83-4,2.38-7.77,5.88-8.68,10.46a2,2,0,0,0,.13,1.49c.47.71,1.51.63,2.34.48l12.43-2.4c1.91,2.33-.56,5.65-3,7.46a73.27,73.27,0,0,1-22.75,11.57c-10,3-12.17-2.3-16-9.79a63.31,63.31,0,0,1-7.37-28.49c0-1.26.14-2.74,1.22-3.39a1.93,1.93,0,0,1,1.7-.14,6.61,6.61,0,0,1,2.9,2.71c1,1.65,3.1,3.47,4.66,2.29,1-.75,1-2.22.82-3.45q-1.2-11-2.38-21.94c-.24-2.22.46-5.43,2.67-5.11,1.21.18,1.9,1.45,2.41,2.58l4.44,9.9c.6,1.33,1.56,2.89,3,2.77a3,3,0,0,0,2-1.36c3.44-4.63,1.19-11.1-.38-16.65a59.67,59.67,0,0,1-2.23-18.42c0-.78.2-1.73.94-2a1.77,1.77,0,0,1,1.55.52c2.92,2.46,4,7.34,6.74,9.39a4.65,4.65,0,0,0,2.43.93c2.59-5.48.23-11.86-1.12-17.76a51,51,0,0,1-.88-17.58,12.72,12.72,0,0,1,7.94,3.6c2.94-6.78.46-14.52-.22-21.89a44.08,44.08,0,0,1,2-17.74c2.22-.83,3.83,2.14,4.37,4.44s2.24,5.26,4.41,4.33a3.4,3.4,0,0,0,1.48-1.43,31,31,0,0,0,2.72-6.74,40.53,40.53,0,0,1,12.31-17.76c3.78,7.12,1.59,16-2.44,23-2.3,4-5.27,8.06-4.74,12.6l12.31-4.25a3.83,3.83,0,0,1,2.69-.25,3.3,3.3,0,0,1,1.65,2.76c1,7-4.93,13-10.56,17.34s-12.06,9.28-12.61,16.37l15.12-2.95a2.73,2.73,0,0,1,2.22.22,2.27,2.27,0,0,1,.61,1.73c0,2.93-1.88,5.54-4,7.56-3.65,3.44-8.17,5.8-12.08,8.93S123.58,351.27,123.43,356.27Z"/><path class="cls-16" d="M123.46,417.31a72.39,72.39,0,0,1-15.29,8.85,31.88,31.88,0,0,1-17.29-9.65c-5.4-6.1-7.84-14.24-9.4-22.23-.47-2.39-.88-4.8-1.2-7.21a6.61,6.61,0,0,1,2.9,2.71c1,1.65,3.1,3.47,4.66,2.29,1-.75,1-2.22.82-3.45q-1.2-11-2.38-21.94c-.24-2.22.46-5.43,2.67-5.11,1.21.18,1.9,1.45,2.41,2.58l4.44,9.9c.6,1.33,1.56,2.89,3,2.77a3,3,0,0,0,2-1.36c3.44-4.63,1.19-11.1-.38-16.65a59.67,59.67,0,0,1-2.23-18.42c0-.78.2-1.73.94-2a1.77,1.77,0,0,1,1.55.52c2.92,2.46,4,7.34,6.74,9.39.44,4.75,1,9.5,1.83,14.22a124.24,124.24,0,0,0,6.28,22.78q1,2.52,2,5c1.26,2.94,2.64,5.84,4.13,8.67-.51.27-1,.55-1.48.83-4,2.38-7.77,5.88-8.68,10.46a2,2,0,0,0,.13,1.49c.47.71,1.51.63,2.34.48l12.43-2.4C128.33,412.18,125.86,415.5,123.46,417.31Z"/><path class="cls-17" d="M99.18,398.06a53.28,53.28,0,0,1-1.44,9.22A55,55,0,0,1,93.87,418a54.26,54.26,0,0,1-5.56,9.17c-2.86,3.82-3.52,4.11-6.92.63-9.77-10-19.59-21.14-23.31-34.95a23.88,23.88,0,0,1,10.39,6.19c1.63-2.43-.62-5.51-2.61-7.64a82,82,0,0,1-15.29-23.37c5.84-.45,9.59,6.8,15.37,7.78,0-5.61-4.49-10-8.11-14.31a60.61,60.61,0,0,1-12.58-24.85,13.85,13.85,0,0,1,7,.89h0c.86-5.32-2.5-10.17-5.3-15.07-2.26-3.93-4.16-7.88-3.22-12.12a1.56,1.56,0,0,1,.64-.21c1.47-.2,2.89,1.51,3.86,2.88,1.1,1.57,3.74,2.88,4.63,1.18a2.78,2.78,0,0,0,.14-1.74,58,58,0,0,0-1.61-6.29,43,43,0,0,1-1-17.42,2.89,2.89,0,0,1,1.08-2.22,2.2,2.2,0,0,1,1.78,0c2.32.87,3.2,3.63,3.8,6l5.13,20.91c1.83-1.43,2.68-3.74,4.05-5.63s3.87-3.42,5.93-2.33c1.5.79,2,2.64,2.28,4.33,1.25,9-2.8,18.08-1.86,27.12a3,3,0,0,0,.35,1.29c.86,1.31,3,.48,3.88-.83s1.2-3,2.44-4c1.59-1.22,4.06-.57,5.35.95A8.6,8.6,0,0,1,86.19,340c.07,10.36-7.6,20.09-5.64,30.25l6.32-6.84a3.11,3.11,0,0,1,1.89-1.23c1-.08,1.8.8,2.25,1.68,2.46,4.75-.57,10.3-2.73,15.2A47.16,47.16,0,0,0,85.39,388c-.24,1.12-.43,2.25-.6,3.39a3.66,3.66,0,0,0,.49,2.95c1.08,1.17,3,.46,4.18-.71l.25-.26c1.09-1.32,1.88-3.05,3.47-3.69,1.91-.79,4.18.49,5.16,2.3A11.13,11.13,0,0,1,99.18,398.06Z"/><path class="cls-18" d="M97.74,407.28A55,55,0,0,1,93.87,418a54.26,54.26,0,0,1-5.56,9.17c-2.86,3.82-3.52,4.11-6.92.63-9.77-10-19.59-21.14-23.31-34.95a23.88,23.88,0,0,1,10.39,6.19c1.63-2.43-.62-5.51-2.61-7.64a82,82,0,0,1-15.29-23.37c5.84-.45,9.59,6.8,15.37,7.78,0-5.61-4.49-10-8.11-14.31a60.61,60.61,0,0,1-12.58-24.85,13.85,13.85,0,0,1,7,.89h0c6.62,14.38,17,28.45,25.42,40,2.56,3.52,5.19,7,7.77,10.48,1.39,1.87,2.74,3.74,4.07,5.63a122.52,122.52,0,0,1,6.61,10.4C96.66,405.09,97.22,406.17,97.74,407.28Z"/><path class="cls-19" d="M135.35,419.33l-15.94,75.08H72.75L54.49,419.33c.22.07,7.89.09,18.43.1C96.78,419.44,135.35,419.33,135.35,419.33Z"/><path class="cls-20" d="M111.49,494.41H72.75L54.49,419.33c.22.07,7.89.09,18.43.1.29,8,2.78,16.3,5.56,23.51a112.6,112.6,0,0,0,7.25,15.15C93.08,471,102.45,482.62,111.49,494.41Z"/><circle class="cls-1" cx="519.23" cy="540.77" r="7.15"/><path class="cls-11" d="M360.48,318.64c-1.31,1.54-3.71,1.35-5.67.9a99.49,99.49,0,0,1-14-4.73L334,312.14a17.13,17.13,0,0,1-4.88-2.57,11.09,11.09,0,0,1-2.38-3,23.88,23.88,0,0,0,2.43,1.31,71.88,71.88,0,0,0,23.29,5.38,33.12,33.12,0,0,1,7.71.92,4.2,4.2,0,0,1,.5.17h0A4,4,0,0,1,360.48,318.64Z"/><path class="cls-11" d="M387.73,466.59q-.32,3.2-.6,6.39a23.51,23.51,0,0,1-10.09.57c-.23,0-.49,0-.77-.05,0-.94.06-1.88.1-2.81s-.05-2,.08-2.95h.08C380.25,467.24,384,466.76,387.73,466.59Z"/><path class="cls-5" d="M266.73,288.23l125.09,27s23.91,6.24,20.45,28.76-21.49,125.09-21.49,125.09-11.43,3.81-16.28,0l-3.12-122.32-103.26-49.2Z"/><path class="cls-11" d="M483.48,453.44a10.93,10.93,0,0,1-1.46,1.18,27,27,0,0,1-5,2.46c-.48.2-.9.43-1.29.6-1.31-1.58-2.54-3.27-2.73-4.71-.35-2.62,4.6-4.48,6.47-5.66A70.6,70.6,0,0,0,483.48,453.44Z"/><path class="cls-21" d="M332.92,361.52v6.58a6.27,6.27,0,0,1-.2,1.58,6.42,6.42,0,0,1-4.94,4.71,6,6,0,0,1-1.28.13h-129a6.42,6.42,0,0,1-6.33-6.42v-6.58a6.41,6.41,0,0,1,6.41-6.41H326.5A6.42,6.42,0,0,1,332.92,361.52Z"/><path class="cls-22" d="M332.92,361.52v6.58a6.27,6.27,0,0,1-.2,1.58,6.76,6.76,0,0,1-2.09,1.1,14.28,14.28,0,0,1-5.9.17l-39.43-4.37L252.84,363c-9.58-1.07-19.17-2.13-28.59-4.12a6.58,6.58,0,0,1-4.73-3.75h107A6.42,6.42,0,0,1,332.92,361.52Z"/><path class="cls-23" d="M204,320.46s-.35,37.07,22.87,36.73S370,370.35,370,370.35s12.82.7,21.83,10.4,79.36,74.85,79.36,74.85S484,452.83,486.77,448l-73.46-98.76s-8.67-15.6-35.35-21.14L266.73,288.23S238,310.75,204,320.46Z"/></g></g></svg>